<?xml version="1.0" encoding="UTF-8"?><!DOCTYPE svg PUBLIC "-//W3C//DTD SVG 1.1//EN" "http://www.w3.org/Graphics/SVG/1.1/DTD/svg11.dtd"><svg xmlns="http://www.w3.org/2000/svg" xmlns:xlink="http://www.w3.org/1999/xlink"><symbol id="icon-add" viewBox="0 0 32 32"><g fill="none">
<path fill-rule="evenodd" clip-rule="evenodd" d="M16 32C24.8366 32 32 24.8366 32 16C32 7.16344 24.8366 0 16 0C7.16344 0 0 7.16344 0 16C0 24.8366 7.16344 32 16 32ZM17 16.998H23V14.998H17V8.998H15V14.998H9V16.998H15V22.998H17V16.998Z" fill="#F89A22"/>
</g></symbol><symbol id="icon-subtract" viewBox="0 0 32 33"><g fill="none">
<path fill-rule="evenodd" clip-rule="evenodd" d="M16 32.9707C24.8366 32.9707 32 25.8073 32 16.9707C32 8.13415 24.8366 0.970703 16 0.970703C7.16344 0.970703 0 8.13415 0 16.9707C0 25.8073 7.16344 32.9707 16 32.9707ZM17.4128 16.9693L21.6555 12.7266L20.2412 11.3124L15.9986 15.5551L11.756 11.3124L10.3417 12.7266L14.5844 16.9693L10.3417 21.2119L11.756 22.6261L15.9986 18.3835L20.2412 22.6261L21.6555 21.2119L17.4128 16.9693Z" fill="#4A4A4A"/>
</g></symbol></svg>