<?xml version="1.0" encoding="UTF-8"?><!DOCTYPE svg PUBLIC "-//W3C//DTD SVG 1.1//EN" "http://www.w3.org/Graphics/SVG/1.1/DTD/svg11.dtd"><svg xmlns="http://www.w3.org/2000/svg" xmlns:xlink="http://www.w3.org/1999/xlink"><symbol id="icon-add" viewBox="0 0 32 32">
<path fill-rule="evenodd" clip-rule="evenodd" d="M16 32C24.8366 32 32 24.8366 32 16C32 7.16344 24.8366 0 16 0C7.16344 0 0 7.16344 0 16C0 24.8366 7.16344 32 16 32ZM17 16.998H23V14.998H17V8.998H15V14.998H9V16.998H15V22.998H17V16.998Z"/>
</symbol><symbol id="icon-headset" viewBox="0 0 60 60">
<path d="M55.0488 21.0254H50.5314C49.7633 10.3691 40.8486 1.93359 30 1.93359C19.1514 1.93359 10.2367 10.3691 9.46863 21.0254H4.95117C2.22105 21.0254 0 23.2465 0 25.9766V35.4639C0 38.194 2.22105 40.415 4.95117 40.415H11.1718C12.1426 40.415 12.9296 39.628 12.9296 38.6572V22.7832V22.5196C12.9296 18.9732 14.017 15.6763 15.8754 12.9438C17.4773 13.9941 19.3379 14.5399 21.2186 14.5398C22.6893 14.5398 24.172 14.2065 25.5516 13.5212C26.9415 12.8306 28.4382 12.4805 29.9999 12.4805C31.5616 12.4805 33.0582 12.8306 34.4482 13.5212C37.5918 15.0831 41.2695 14.8155 44.1243 12.9438C45.9826 15.6763 47.0701 18.9732 47.0701 22.5196V22.7832V38.6572V44.541C47.0701 47.6336 44.8918 50.2253 41.9895 50.8668C41.2214 48.8932 39.3022 47.4902 37.0604 47.4902H33.5302C30.6143 47.4902 28.2421 49.8625 28.2421 52.7783C28.2421 55.6942 30.6143 58.0664 33.5302 58.0664H37.0604C39.4017 58.0664 41.3913 56.5363 42.085 54.424C46.89 53.7006 50.5859 49.5445 50.5859 44.541V40.415H55.0487C57.7788 40.415 59.9999 38.194 59.9999 35.4639V25.9766C60 23.2465 57.7789 21.0254 55.0488 21.0254ZM9.41402 36.8994H4.95117C4.15957 36.8994 3.51562 36.2555 3.51562 35.4639V25.9766C3.51562 25.185 4.15957 24.5411 4.95117 24.5411H9.41402V36.8994ZM36.0127 10.3727C34.1323 9.43852 32.1094 8.96484 30 8.96484C27.8907 8.96484 25.8679 9.43852 23.9875 10.3727C22.1109 11.305 19.9356 11.2174 18.1689 10.2264C21.2396 7.26996 25.4109 5.44922 30 5.44922C34.5891 5.44922 38.7605 7.26996 41.8311 10.2264C40.0645 11.2174 37.8892 11.305 36.0127 10.3727ZM37.0605 54.5508H33.5303C32.5529 54.5508 31.7578 53.7557 31.7578 52.7783C31.7578 51.801 32.5529 51.0059 33.5303 51.0059H37.0605C38.0379 51.0059 38.833 51.801 38.833 52.7783C38.833 53.7557 38.0379 54.5508 37.0605 54.5508ZM56.4844 35.4639C56.4844 36.2555 55.8404 36.8994 55.0488 36.8994H50.586V24.5411H55.0488C55.8404 24.5411 56.4844 25.185 56.4844 25.9766V35.4639Z"/>
</symbol><symbol id="icon-menu" viewBox="0 0 24 24">
<path d="M3 18H21V16H3V18ZM3 13H21V11H3V13ZM3 6V8H21V6H3Z"/>
</symbol><symbol id="icon-subtract" viewBox="0 0 32 33">
<path fill-rule="evenodd" clip-rule="evenodd" d="M16 32.9707C24.8366 32.9707 32 25.8073 32 16.9707C32 8.13415 24.8366 0.970703 16 0.970703C7.16344 0.970703 0 8.13415 0 16.9707C0 25.8073 7.16344 32.9707 16 32.9707ZM17.4128 16.9693L21.6555 12.7266L20.2412 11.3124L15.9986 15.5551L11.756 11.3124L10.3417 12.7266L14.5844 16.9693L10.3417 21.2119L11.756 22.6261L15.9986 18.3835L20.2412 22.6261L21.6555 21.2119L17.4128 16.9693Z"/>
</symbol><symbol id="icon-tower" viewBox="0 0 60 60">
<path d="M51.1816 0H42.9492C41.9784 0 41.1914 0.787031 41.1914 1.75781V7.06055H35.874V1.75781C35.874 0.787031 35.087 0 34.1162 0H25.8838C24.913 0 24.126 0.787031 24.126 1.75781V7.06055H18.8086V1.75781C18.8086 0.787031 18.0216 0 17.0508 0H8.81836C7.84758 0 7.06055 0.787031 7.06055 1.75781V15.8789C7.06055 16.3452 7.24582 16.7923 7.57547 17.1218L10.5908 20.1371V58.2422C10.5908 59.213 11.3779 60 12.3486 60H26.4697H33.5303H47.6514C48.6221 60 49.4092 59.213 49.4092 58.2422V20.1371L52.4245 17.1218C52.7542 16.7923 52.9395 16.3451 52.9395 15.8789V1.75781C52.9395 0.787031 52.1524 0 51.1816 0ZM35.874 10.5762H41.1914V17.6514H35.874V10.5762ZM38.833 21.167V28.2422H34.9866C34.4549 26.7384 33.2617 25.5452 31.7578 25.0134V21.167H38.833ZM31.7725 30V35.3027H28.2275V30C28.2275 29.0227 29.0227 28.2275 30 28.2275C30.9773 28.2275 31.7725 29.0227 31.7725 30ZM27.6416 3.51562H32.3584V17.6514H27.6416V3.51562ZM28.2422 21.167V25.0134C26.7384 25.5451 25.5452 26.7383 25.0134 28.2422H21.167V21.167H28.2422ZM18.8086 10.5762H24.126V17.6514H18.8086V10.5762ZM24.7119 31.7578V35.3027H14.1064V31.7578H24.7119ZM17.6514 38.8184V42.3633H14.1064V38.8184H17.6514ZM17.6514 21.167V28.2422H14.1064V21.167H17.6514ZM10.5762 15.1508V3.51562H15.293V17.6514H13.0767L10.5762 15.1508ZM17.6514 56.4844H14.1064V52.9395H17.6514V56.4844ZM24.7119 56.4844H21.167V52.9395H24.7119V56.4844ZM24.7119 49.4238H14.1064V45.8789H24.7119V49.4238ZM21.167 42.3633V38.8184H26.4697H28.2422V42.3633H26.4697H21.167ZM31.7725 56.4844H28.2275V45.8789H31.7725V56.4844ZM31.7578 42.3633V38.8184H33.5303H38.833V42.3633H33.5303H31.7578ZM38.833 56.4844H35.2881V52.9395H38.833V56.4844ZM45.8936 56.4844H42.3486V52.9395H45.8936V56.4844ZM45.8936 49.4238H35.2881V45.8789H45.8936V49.4238ZM45.8936 42.3633H42.3486V38.8184H45.8936V42.3633ZM45.8936 35.3027H35.2881V31.7578H45.8936V35.3027ZM45.8936 28.2422H42.3486V21.167H45.8936V28.2422ZM49.4238 15.1508L46.9233 17.6514H44.707V3.51562H49.4238V15.1508Z"/>
</symbol></svg>