<?xml version="1.0" encoding="UTF-8"?><svg id="Layer_2" xmlns="http://www.w3.org/2000/svg" viewBox="0 0 948.08 114.83"><defs><style>.cls-1{fill:#518a29;}.cls-1,.cls-2,.cls-3,.cls-4,.cls-5{stroke-width:0px;}.cls-2{fill:#34591a;}.cls-3{fill:#61a631;}.cls-4{fill:#6dba38;}.cls-5{fill:#7bc946;}</style></defs><g id="Classic_3_"><g id="Classic_1"><g id="bushes"><path class="cls-1" d="M935.64,100.32s25.45-19.53,3.55-26.63c0,0,5.92-11.25-.59-14.21-6.51-2.96-9.47,8.29-9.47,8.29,0,0,26.04-47.94-10.06-49.72-36.1-1.78-37.88,40.25-37.88,40.25,0,0-8.29-21.31-19.53-12.43-11.25,8.88.59,27.23.59,27.23,0,0-8.29-4.73-11.25-.59-2.96,4.14,5.92,7.7,5.92,7.7,0,0-25.45,1.18-24.86,18.94.59,17.76,103.57,1.18,103.57,1.18Z"/><path class="cls-3" d="M879.24,81.93s-5.41-2.16-3.61-4.69c1.8-2.52,6.85.36,6.85.36,0,0-7.21-11.18-.36-16.58,6.85-5.41,11.9,7.57,11.9,7.57,0,0,.81-18.79,14.88-23.48,0-4.67,1.1-9.69,6.03-8.7,4.05.81,3.29,4.21,1.27,7.66.3,0,.58,0,.89.01,17.07.84,11.34,18.61,7.91,26.53.94-1.22,2.25-2.08,3.98-1.29,3.97,1.8.36,8.65.36,8.65,13.34,4.33-2.16,16.22-2.16,16.22,0,0-62.74,10.1-63.1-.72-.36-10.82,15.14-11.54,15.14-11.54Z"/><path class="cls-2" d="M904.59,97.43s.43-.48,1.09-1.21c.36-.32.79-.69,1.25-1.09.51-.35,1.02-.75,1.57-1.09,1.12-.69,2.29-1.28,3.26-1.65.96-.4,1.69-.57,1.93-.69.46-.25.79-.57,1-1.06.21-.47.29-1.06.14-1.62-.15-.56-.52-.99-1.06-1.21-.53-.21-1.25-.25-1.84.06-.31.15-1.16.67-2.08,1.52-.95.82-1.95,1.96-2.81,3.12-.43.58-.78,1.21-1.13,1.75-.29.58-.55,1.12-.78,1.58-.33.95-.55,1.58-.55,1.58Z"/><path class="cls-2" d="M898.81,97.17s0-.84-.03-2.18c-.08-.65-.16-1.43-.27-2.27-.18-.82-.33-1.74-.58-2.63-.92-3.61-2.85-7.24-3.46-7.88-.5-.69-1.27-1.09-1.91-1.23-.66-.14-1.24.01-1.64.44-.39.43-.54,1.04-.48,1.65.05.62.34,1.19.76,1.79.47.5,2.97,3.06,4.79,6.07.47.74.84,1.51,1.25,2.22.33.74.63,1.43.9,2.01.4,1.23.67,2.03.67,2.03Z"/><path class="cls-2" d="M902.49,96.12s.08-.13.23-.36c.16-.23.33-.59.53-1.02.38-.89.72-2.16.9-3.49.19-1.34.22-2.73.14-3.88-.07-1.14-.29-2.04-.38-2.34-.19-.61-.57-1.12-.95-1.4-.42-.28-.78-.31-.99-.12-.22.2-.29.54-.28.88,0,.38.07.8.23,1.3.07.25.38.94.62,1.95.26,1,.48,2.29.56,3.56.09,1.27.02,2.53-.16,3.44-.1.45-.19.83-.29,1.08-.09.26-.15.4-.15.4Z"/><path class="cls-4" d="M708.96,103.88s-15.37-29.35,8.39-30.75c0,0-9.78-29.35,33.54-34.94,43.32-5.59,34.94,27.95,34.94,27.95,0,0,15.37-13.98,23.76-6.99,8.39,6.99-4.19,18.17-4.19,18.17,0,0,38.89-14.83,45.18,20.11,6.29,34.94-141.61,6.45-141.61,6.45Z"/><path class="cls-5" d="M721.16,101.91s-9.71-18.55,5.3-19.43c0,0-6.18-18.55,21.2-22.08,27.38-3.53,22.08,17.66,22.08,17.66,0,0,9.71-8.83,15.01-4.42,5.3,4.42-2.65,11.48-2.65,11.48,0,0,24.57-9.37,28.55,12.71,3.97,22.08-89.48,4.07-89.48,4.07Z"/><path class="cls-2" d="M745.91,101.77s-.3-.84-.76-2.13c-.46-1.28-1.07-3.01-1.8-4.68-.73-1.67-1.62-3.24-2.45-4.29-.83-1.05-1.52-1.66-1.74-1.87-.2-.23-.34-.5-.46-.77-.11-.28-.16-.61-.2-.92-.06-.63.04-1.38.42-2.01.39-.63,1.03-.99,1.84-1,.42-.02.82.1,1.25.29.43.19.82.49,1.16.88.37.36,1.15,1.65,1.74,3.35.59,1.7.92,3.78,1.04,5.73.12,1.95.06,3.8.03,5.16-.04,1.37-.06,2.26-.06,2.26Z"/><path class="cls-2" d="M749.24,97.1s.14-.76.35-1.92c.16-.58.35-1.25.56-1.98.24-.72.52-1.49.82-2.28,1.24-3.1,3.03-6.21,3.55-6.74.98-1.12,2.7-1.12,3.72-.07,1.04,1.06,1.12,2.64.25,3.63-.45.47-3.05,2.45-5.29,4.65-.54.57-1.08,1.13-1.58,1.65-.47.56-.9,1.07-1.27,1.51-.67.95-1.11,1.57-1.11,1.57Z"/><path class="cls-2" d="M749.57,99.77s.69-.7,1.75-1.76c.56-.52,1.29-1.02,2.07-1.63.8-.56,1.72-1.07,2.65-1.63,1.89-.98,3.92-1.87,5.52-2.5,1.62-.64,2.79-1.1,3.22-1.2,1.68-.42,3.31.31,3.79,1.72.47,1.38-.67,2.99-2.49,3.45-.45.11-1.79.27-3.47.41-1.7.14-3.72.33-5.69.64-.95.21-1.93.38-2.8.63-.85.29-1.69.52-2.35.81-1.33.64-2.2,1.06-2.2,1.06Z"/><path class="cls-2" d="M746.24,90.1s.11-1.23.42-3.11c.31-1.88.87-4.4,1.74-6.96.86-2.56,2.08-5.14,3.45-7.12,1.36-1.98,2.85-3.34,3.45-3.7,1.14-.79,2.5-1.06,3.49-.89,1.02.2,1.63.72,1.78,1.44.14.72-.14,1.5-.56,2.12-.42.66-.99,1.23-1.73,1.75-.38.22-1.56.9-3.01,2.19-1.45,1.29-3.09,3.25-4.47,5.36-1.4,2.11-2.56,4.34-3.35,6.04-.78,1.7-1.22,2.86-1.22,2.86Z"/><path class="cls-1" d="M386.57,98.85s5.47-24.22,31.25-12.5c0,0-3.91-9.38,4.69-9.38s9.37,8.59,9.37,8.59c0,0-16.41-29.69,7.03-35.94,23.44-6.25,33.59,14.84,33.59,14.84,0,0-1.56-16.41,5.47-14.84,7.03,1.56,6.25,13.28,6.25,13.28,0,0,2.34-44.53,35.15-29.69,32.81,14.84,25,42.18,21.87,48.43s22.65-7.03,22.65,13.28-177.33,3.91-177.33,3.91Z"/><path class="cls-3" d="M432.91,98.77s3.33-15.06,16.47-9.08c0,0-1.99-4.78,2.39-4.78s4.78,4.38,4.78,4.38c0,0-8.36-15.14,3.58-18.32,11.95-3.19,17.13,7.57,17.13,7.57,0,0-.8-8.36,2.79-7.57,3.58.8,3.19,6.77,3.19,6.77,0,0,1.19-22.7,17.92-15.14,16.73,7.57,12.75,21.51,11.15,24.7-1.59,3.19,11.55-3.58,11.55,6.77s-90.95,4.7-90.95,4.7Z"/><path class="cls-2" d="M469.57,100.43s-.33-.81-.87-2.02c-.54-1.21-1.31-2.81-2.23-4.32-.91-1.51-1.99-2.91-2.92-3.76-.93-.88-1.64-1.18-1.84-1.32-.4-.27-.6-.68-.82-1.25-.2-.53-.41-1.27-.33-2,.08-.73.51-1.33,1.34-1.64.79-.29,1.95-.13,2.87.51.47.3,1.62,1.45,2.43,3.06.85,1.6,1.43,3.57,1.77,5.46.35,1.89.48,3.71.54,5.05.06,1.34.06,2.21.06,2.21Z"/><path class="cls-2" d="M472.57,97.77s.17-1.06.42-2.68c.22-.8.48-1.74.77-2.76.39-.97.76-2.07,1.25-3.13,1.89-4.27,5.12-8.3,6-8.95.77-.73,1.8-1.05,2.63-1.07.84-.01,1.54.31,1.93.93.4.62.45,1.41.24,2.15-.2.76-.68,1.41-1.33,2.04-.7.51-4.35,3.04-7.22,6.34-.72.81-1.35,1.67-1.99,2.46-.55.85-1.06,1.63-1.49,2.3-.73,1.44-1.2,2.38-1.2,2.38Z"/><path class="cls-2" d="M476.24,101.1s.15-.67.39-1.7c.19-.5.41-1.09.65-1.73.31-.6.63-1.29,1.02-1.94,1.54-2.63,4-4.97,4.64-5.28.59-.37,1.33-.35,1.93-.11.61.25,1.1.75,1.38,1.43.28.68.32,1.4.2,1.99-.12.6-.42,1.03-.88,1.33-.46.23-3.04,1.02-5.33,2.48-.57.35-1.08.76-1.61,1.12-.47.42-.91.81-1.28,1.14-.67.77-1.11,1.27-1.11,1.27Z"/><path class="cls-2" d="M471.24,87.77s-.43-.79-1.07-2.07c-.25-.66-.58-1.43-.87-2.3-.22-.87-.58-1.82-.73-2.81l-.28-1.49c-.08-.5-.12-1-.18-1.49-.13-.98-.15-1.93-.17-2.79-.04-.86.03-1.61.06-2.22.05-.6.08-1.05.15-1.27.21-.78.62-1.43,1.13-1.85l1.04-1.23c.32-.03.64-.07.94-.1.13,0,.06-.02.48.03.34.07.59.16.91.41.19.16.37.38.49.62.12.21.18.56.17.59.01.19,0,.38-.04.56-.02.11-.04.13-.05.15l-.04.08-.08.16c-.04.06-.08.09-.12.13-.27.2-.43.13-.61.11-.35-.09-.75-.09-1.13-.23-.39-.14-.77-.36-.95-.8-.04-.1-.08-.2-.12-.31-.02-.05-.04-.09-.06-.13,0-.02-.03-.03-.04-.05l-.02-.02s-.05-.03.04.02l.18.09.15.08c.2.1.43.2.62.28.1.06.25.09.34.12.07.02.14,0,.13,0-.03.03-.01.06,0,.19.03.14.15.58.31.89.09.21.2.49.31.73.05.1.03.05.05.08.34-.4.67-.79,1.04-1.23.24.58.3,1.22.12,1.86-.06.18-.16.54-.33,1.02-.16.49-.42,1.09-.61,1.81-.22.71-.47,1.52-.65,2.38-.09.43-.22.87-.3,1.32l-.21,1.36c-.18.92-.17,1.82-.26,2.68-.03.85,0,1.64,0,2.34.16,1.37.26,2.27.26,2.27Z"/><path class="cls-1" d="M128.84,104.44s-32.29-24.78-4.5-33.79c0,0-7.51-14.27.75-18.02,8.26-3.75,12.01,10.51,12.01,10.51,0,0-33.04-60.82,12.76-63.07,45.8-2.25,48.05,51.06,48.05,51.06,0,0,10.51-27.03,24.78-15.77,14.27,11.26-.75,34.54-.75,34.54,0,0,10.51-6.01,14.27-.75,3.75,5.26-7.51,9.76-7.51,9.76,0,0,32.29,1.5,31.53,24.03-.75,22.53-131.4,1.5-131.4,1.5Z"/><path class="cls-3" d="M200.4,81.11s6.86-2.75,4.57-5.95c-2.29-3.2-8.69.46-8.69.46,0,0,9.15-14.18.46-21.04-8.69-6.86-15.09,9.6-15.09,9.6,0,0-1.02-23.84-18.88-29.79,0-5.92-1.4-12.29-7.64-11.04-5.14,1.03-4.18,5.34-1.62,9.72-.38,0-.74,0-1.13.01-21.65,1.06-14.38,23.61-10.04,33.66-1.19-1.55-2.86-2.64-5.05-1.64-5.03,2.29-.46,10.98-.46,10.98-16.92,5.49,2.74,20.58,2.74,20.58,0,0,79.59,12.81,80.04-.92.46-13.72-19.21-14.64-19.21-14.64Z"/><path class="cls-2" d="M168.24,100.77s-.55-.61-1.39-1.53c-.46-.4-1-.88-1.59-1.39-.64-.45-1.29-.95-1.99-1.39-1.42-.87-2.91-1.63-4.14-2.09-1.22-.51-2.15-.73-2.44-.87-.58-.32-1.01-.73-1.27-1.34-.26-.6-.37-1.34-.18-2.05s.66-1.25,1.34-1.53c.67-.27,1.58-.32,2.33.08.39.18,1.47.85,2.64,1.92,1.2,1.04,2.48,2.48,3.57,3.96.54.74.99,1.54,1.43,2.23.36.74.7,1.43.99,2.01.42,1.21.7,2,.7,2Z"/><path class="cls-2" d="M175.57,100.43s0-1.07.03-2.76c.1-.83.2-1.81.34-2.88.23-1.04.42-2.2.73-3.34,1.16-4.58,3.62-9.19,4.38-10,.63-.88,1.61-1.39,2.43-1.56.83-.17,1.58.01,2.08.55.5.54.68,1.31.61,2.09-.07.79-.43,1.51-.97,2.27-.6.64-3.77,3.88-6.08,7.7-.59.94-1.07,1.92-1.58,2.82-.42.94-.81,1.81-1.14,2.55-.51,1.56-.85,2.58-.85,2.58Z"/><path class="cls-2" d="M170.91,99.1s-.11-.17-.29-.46c-.21-.29-.41-.74-.67-1.3-.48-1.13-.91-2.74-1.14-4.43-.23-1.69-.28-3.47-.18-4.92.08-1.45.36-2.58.48-2.97.24-.77.72-1.42,1.2-1.78.53-.36.99-.39,1.26-.15.27.25.36.68.36,1.12,0,.48-.09,1.02-.29,1.65-.09.31-.48,1.19-.79,2.48-.32,1.27-.61,2.9-.71,4.52-.11,1.61-.03,3.2.2,4.36.13.57.24,1.06.37,1.37.12.33.19.51.19.51Z"/><path class="cls-4" d="M7.9,99.1s-17.33-21.33-.67-29.33,29.33,8.67,29.33,8.67c0,0-4.67-14.67,0-16s7.33,8.67,7.33,8.67c0,0,7.33-47.33,43.33-35.33s2,42.67,2,42.67c0,0,11.33-12.67,16-5.33,4.67,7.33-4,12-4,12,0,0,26-3.33,27.33,12.67s-120.67,1.33-120.67,1.33Z"/><path class="cls-5" d="M19.62,98.88s-12.32-15.16-.47-20.85c11.84-5.68,20.85,6.16,20.85,6.16,0,0-3.32-10.42,0-11.37,3.32-.95,5.21,6.16,5.21,6.16,0,0,5.21-33.64,30.79-25.11,25.58,8.53,1.42,30.32,1.42,30.32,0,0,8.05-9,11.37-3.79,3.32,5.21-2.84,8.53-2.84,8.53,0,0,18.48-2.37,19.42,9,.95,11.37-85.75.95-85.75.95Z"/><path class="cls-2" d="M56.61,101.3s2.52-3.66,5.98-7.04c1.72-1.69,3.69-3.32,5.55-4.44,1.84-1.14,3.62-1.72,4.27-1.81,1.28-.22,2.6.12,3.38.8.8.66,1.02,1.56.77,2.33-.26.8-.82,1.4-1.35,1.88-.54.46-1.09.8-1.83.92-.36.06-1.5.08-3.19.52-1.67.42-3.81,1.25-5.85,2.25-2.04,1-3.99,2.14-5.41,3.04-1.42.9-2.32,1.55-2.32,1.55Z"/><path class="cls-2" d="M53.6,102.43s-.41-.68-1.05-1.72c-.69-1-1.62-2.31-2.75-3.44-1.1-1.15-2.34-2.12-3.36-2.75-1.02-.66-1.83-.96-2.05-1.15-.92-.65-1.07-2.15-.58-3.74.5-1.61,2.58-2.24,4.05-1.18.35.27,1.3,1.16,2.2,2.5.91,1.33,1.77,3.07,2.33,4.79.6,1.71.86,3.41,1.04,4.64.1,1.24.16,2.04.16,2.04Z"/><path class="cls-2" d="M45.32,100.93s-.1-.11-.27-.31c-.18-.19-.38-.49-.73-.75-.61-.6-1.6-1.14-2.61-1.47-2.05-.69-4.28-.48-4.68-.58-.81-.22-1.26-1.62-1.11-3.28.14-1.66,1.4-2.87,2.63-2.55.59.14,3.35,1.7,5.04,4.06.84,1.16,1.4,2.41,1.56,3.36.13.45.12.86.15,1.12.02.26.03.41.03.41Z"/></g></g></g></svg>