<?xml version="1.0" encoding="UTF-8"?><svg id="Layer_2" xmlns="http://www.w3.org/2000/svg" viewBox="0 0 930.03 109.64"><defs><style>.cls-1{fill:#9cc9e8;}.cls-1,.cls-2{stroke-width:0px;}.cls-2{fill:#f1fafe;}</style></defs><g id="Classic_3_"><g id="Classic_1"><g id="cloud"><path class="cls-1" d="M437.83,91.64c-.24,0-.47.02-.7.04-.33-5.6-4.96-10.04-10.63-10.04-1.4,0-2.73.28-3.95.77-1.89-3.62-5.68-6.1-10.05-6.1-5.02,0-9.26,3.26-10.76,7.78-.04,0-.08.01-.13.02-.85-3.7-4.16-6.47-8.12-6.47-2.11,0-4.03.79-5.5,2.08-2.07-3.25-5.7-5.41-9.84-5.41-1.66,0-3.24.35-4.67.98-.48-3.75-3.01-6.84-6.43-8.14.06-.49.1-1,.1-1.51,0-7-5.67-12.67-12.67-12.67-.64,0-1.26.06-1.87.15-2.09-9.44-10.16-16.64-20.03-17.41-1.7-5.82-7.06-10.08-13.43-10.08-5.44,0-10.15,3.11-12.47,7.65-2.41-1.05-5.07-1.65-7.87-1.65-8.9,0-16.41,5.92-18.84,14.03-1.19-.44-2.48-.7-3.83-.7-6.08,0-11,4.92-11,11,0,.14.02.27.02.41-1.93-.48-3.94-.74-6.02-.74-8.34,0-15.7,4.14-20.17,10.47-1.9-1.14-4.12-1.81-6.5-1.81-6.09,0-11.17,4.3-12.39,10.03-.2-.01-.41-.03-.61-.03-3.72,0-6.97,1.97-8.79,4.92-.49-.15-1-.25-1.54-.25-2.95,0-5.33,2.39-5.33,5.33,0,.25.04.49.07.74-1.56-1.29-3.56-2.07-5.74-2.07-4.97,0-9,4.03-9,9s4.03,9,9,9c.87,0,1.71-.13,2.51-.36,1.96,3.4,5.62,5.7,9.82,5.7,5.1,0,9.42-3.38,10.84-8.01,1.89,2.44,4.84,4.01,8.16,4.01,4.64,0,8.57-3.06,9.87-7.28,4.5,6.04,11.69,9.95,19.79,9.95,7.44,0,14.1-3.3,18.62-8.5,6.02,8,15.59,13.17,26.38,13.17,9.96,0,18.88-4.42,24.93-11.39,2.3.88,4.79,1.39,7.4,1.39,4.66,0,8.95-1.56,12.41-4.17,1.59,6.97,7.81,12.17,15.26,12.17,6.66,0,12.34-4.17,14.6-10.03,1.6-.08,3.11-.48,4.47-1.15,1.55,1.93,3.93,3.18,6.6,3.18,3.21,0,5.99-1.78,7.43-4.41,1.25,1.51,3.14,2.46,5.25,2.46,1.22,0,2.35-.32,3.34-.88,1.87,1.35,4.16,2.16,6.64,2.16,1.76,0,3.41-.41,4.9-1.12,1.87,3.07,5.24,5.13,9.1,5.13,1.34,0,2.61-.26,3.78-.7,1.09,3.12,4.05,5.37,7.55,5.37,4.42,0,8-3.58,8-8s-3.58-8-8-8Z"/><path class="cls-1" d="M149.31,64.14c-2.37,0-4.55.77-6.34,2.05-2.08-3.17-5.67-5.27-9.75-5.27-.92,0-1.81.12-2.67.32-1.73-5.32-6.72-9.16-12.61-9.16-1.26,0-2.48.19-3.64.52-.2-.27-.4-.53-.61-.79h0s0,0,0,0c-.71-.88-1.5-1.7-2.34-2.46-.02-.02-.04-.03-.06-.05-.25-.22-.51-.44-.77-.65-.05-.04-.1-.08-.15-.12-.24-.19-.48-.37-.72-.54-.07-.05-.13-.09-.2-.14-.24-.17-.48-.33-.72-.48-.07-.05-.14-.09-.21-.14-.25-.16-.51-.31-.76-.46-.06-.04-.13-.07-.19-.11-.3-.17-.6-.32-.91-.48-.02-.01-.05-.02-.07-.04-.67-.33-1.36-.62-2.07-.87-.05-.02-.11-.04-.16-.06-1.51-7.55-8.17-13.24-16.16-13.24-3.35,0-6.47,1.01-9.07,2.73-1.98-7.13-8.5-12.38-16.26-12.38s-14.6,5.5-16.39,12.89c-2.95-2.52-6.77-4.05-10.95-4.05-9.33,0-16.89,7.56-16.89,16.89,0,.55.03,1.09.08,1.62-.19,0-.39-.02-.58-.02C8.13,49.67.03,57.77.03,67.76c0,.32,0,.64.03.96,0,.04,0,.08,0,.12.02.29.04.57.07.85,0,.01-.13.02-.13.03.07.62.16,1.24.16,1.84H.16c0,8.17,9.14,14.29,17.82,14.29,2.81,0,5.54-.64,7.92-1.79,2.27,6.65,8.59,11.44,16.01,11.44,7.95,0,14.62-5.5,16.41-12.9,2.96,2.11,6.59,3.35,10.5,3.35,2.13,0,4.18-.38,6.08-1.06.69,4.01,4.18,7.06,8.38,7.06,3.43,0,6.39-2.04,7.73-4.97,1.08-.32,2.09-.8,3-1.41,1.11.18,2.25.28,3.41.28,6.63,0,12.54-3.09,16.37-7.91,1.3.43,2.69.67,4.14.67,1.7,0,3.32-.33,4.81-.91,1.9,3.87,5.86,6.54,10.47,6.54,2.83,0,5.43-1.01,7.45-2.69,1.98,2.61,5.11,4.3,8.64,4.3,6,0,10.86-4.86,10.86-10.86s-4.86-10.86-10.86-10.86Z"/><path class="cls-1" d="M414.86,59.59c-4.1,0-7.71,2.05-9.88,5.19-1.07-.4-2.23-.64-3.44-.64-.12,0-.23.01-.35.02-.74-3.13-2.62-5.82-5.2-7.57.22-.8.35-1.65.35-2.52,0-5.21-4.22-9.42-9.43-9.42-3.42,0-6.4,1.83-8.06,4.55-3.3-2.04-7.19-3.22-11.36-3.22-11.97,0-21.67,9.7-21.67,21.67s9.7,21.67,21.67,21.67c7.66,0,14.38-3.98,18.24-9.97,1,.26,2.05.41,3.13.41,1.53,0,3-.29,4.36-.78,1.71,2.81,4.79,4.69,8.32,4.69,2.39,0,4.58-.87,6.28-2.3,1.98,1.44,4.41,2.3,7.05,2.3,6.64,0,12.02-5.38,12.02-12.03s-5.38-12.02-12.02-12.02Z"/><path class="cls-2" d="M149.31,60.12c-2.37,0-4.55.77-6.34,2.05-2.08-3.17-5.67-5.27-9.75-5.27-.92,0-1.81.12-2.67.32-1.73-5.32-6.72-9.16-12.61-9.16-1.26,0-2.48.19-3.64.52-.2-.27-.4-.53-.61-.79h0s0,0,0,0c-.71-.88-1.5-1.7-2.34-2.46-.02-.02-.04-.03-.06-.05-.25-.22-.51-.44-.77-.65-.05-.04-.1-.08-.15-.12-.24-.19-.48-.37-.72-.54-.07-.05-.13-.09-.2-.14-.24-.17-.48-.33-.72-.48-.07-.05-.14-.09-.21-.14-.25-.16-.51-.31-.76-.46-.06-.04-.13-.07-.19-.11-.3-.17-.6-.32-.91-.48-.02-.01-.05-.02-.07-.04-.67-.33-1.36-.62-2.07-.87-.05-.02-.11-.04-.16-.06-1.51-7.55-8.17-13.24-16.16-13.24-3.35,0-6.47,1.01-9.07,2.73-1.98-7.13-8.5-12.38-16.26-12.38s-14.6,5.5-16.39,12.89c-2.95-2.52-6.77-4.05-10.95-4.05-9.33,0-16.89,7.56-16.89,16.89,0,.55.03,1.09.08,1.62-.19,0-.39-.02-.58-.02C8.13,45.65.03,53.75.03,63.74c0,.32,0,.64.03.96,0,.04,0,.08,0,.12.02.29.04.57.07.85,0,.01-.13.02-.13.03.07.62.16,1.24.16,1.84H.16c0,8.17,9.14,14.29,17.82,14.29,2.81,0,5.54-.64,7.92-1.79,2.27,6.65,8.59,11.44,16.01,11.44,7.95,0,14.62-5.5,16.41-12.9,2.96,2.11,6.59,3.35,10.5,3.35,2.13,0,4.18-.38,6.08-1.06.69,4.01,4.18,7.06,8.38,7.06,3.43,0,6.39-2.04,7.73-4.97,1.08-.32,2.09-.8,3-1.41,1.11.18,2.25.28,3.41.28,6.63,0,12.54-3.09,16.37-7.91,1.3.43,2.69.67,4.14.67,1.7,0,3.32-.33,4.81-.91,1.9,3.87,5.86,6.54,10.47,6.54,2.83,0,5.43-1.01,7.45-2.69,1.98,2.61,5.11,4.3,8.64,4.3,6,0,10.86-4.86,10.86-10.86s-4.86-10.86-10.86-10.86Z"/><path class="cls-2" d="M437.83,86.64c-.24,0-.47.02-.7.04-.33-5.6-4.96-10.04-10.63-10.04-1.4,0-2.73.28-3.95.77-1.89-3.62-5.68-6.1-10.05-6.1-5.02,0-9.26,3.26-10.76,7.78-.04,0-.08.01-.13.02-.85-3.7-4.16-6.47-8.12-6.47-2.11,0-4.03.79-5.5,2.08-2.07-3.25-5.7-5.41-9.84-5.41-1.66,0-3.24.35-4.67.98-.48-3.75-3.01-6.84-6.43-8.14.06-.49.1-1,.1-1.51,0-7-5.67-12.67-12.67-12.67-.64,0-1.26.06-1.87.15-2.09-9.44-10.16-16.64-20.03-17.41-1.7-5.82-7.06-10.08-13.43-10.08-5.44,0-10.15,3.11-12.47,7.65-2.41-1.05-5.07-1.65-7.87-1.65-8.9,0-16.41,5.92-18.84,14.03-1.19-.44-2.48-.7-3.83-.7-6.08,0-11,4.92-11,11,0,.14.02.27.02.41-1.93-.48-3.94-.74-6.02-.74-8.34,0-15.7,4.14-20.17,10.47-1.9-1.14-4.12-1.81-6.5-1.81-6.09,0-11.17,4.3-12.39,10.03-.2-.01-.41-.03-.61-.03-3.72,0-6.97,1.97-8.79,4.92-.49-.15-1-.25-1.54-.25-2.95,0-5.33,2.39-5.33,5.33,0,.25.04.49.07.74-1.56-1.29-3.56-2.07-5.74-2.07-4.97,0-9,4.03-9,9s4.03,9,9,9c.87,0,1.71-.13,2.51-.36,1.96,3.4,5.62,5.7,9.82,5.7,5.1,0,9.42-3.38,10.84-8.01,1.89,2.44,4.84,4.01,8.16,4.01,4.64,0,8.57-3.06,9.87-7.28,4.5,6.04,11.69,9.95,19.79,9.95,7.44,0,14.1-3.3,18.62-8.5,6.02,8,15.59,13.17,26.38,13.17,9.96,0,18.88-4.42,24.93-11.39,2.3.88,4.79,1.39,7.4,1.39,4.66,0,8.95-1.56,12.41-4.17,1.59,6.97,7.81,12.17,15.26,12.17,6.66,0,12.34-4.17,14.6-10.03,1.6-.08,3.11-.48,4.47-1.15,1.55,1.93,3.93,3.18,6.6,3.18,3.21,0,5.99-1.78,7.43-4.41,1.25,1.51,3.14,2.46,5.25,2.46,1.22,0,2.35-.32,3.34-.88,1.87,1.35,4.16,2.16,6.64,2.16,1.76,0,3.41-.41,4.9-1.12,1.87,3.07,5.24,5.13,9.1,5.13,1.34,0,2.61-.26,3.78-.7,1.09,3.12,4.05,5.37,7.55,5.37,4.42,0,8-3.58,8-8s-3.58-8-8-8Z"/><path class="cls-1" d="M483.11,47.69s7.82,16.75,28.69,7.05c0,0,21.73,8.81,33.03.88,0,0,28.69,20.27,60.85,2.64,0,0,19.99,10.58,39.99-.88,0,0,11.3,7.93,26.95-1.76,0,0,7.82,11.46,24.34,1.76,0,0,6.08,10.58,26.08-.88,0,0,17.39,15.87,41.72,2.64,0,0,13.04,8.81,30.42-2.64,0,0,31.29,19.39,63.46.88,0,0,7.82,7.93,22.6-.88,0,0,12.17,9.7,24.34,0,0,0,3.48,3.53,15.65,3.53,0,0,8.81,0,8.81-10.14s-8.81-8.37-8.81-8.37c0,0-15.65-14.1-40.86-4.41,0,0-33.03-30.85-75.62-9.7,0,0-10.43-23.8-36.51-22.04-26.08,1.76-33.03,20.27-33.03,20.27,0,0-24.34-9.7-31.29,7.05,0,0-17.38-7.05-18.25,6.17,0,0-26.08-15.87-39.99,2.64,0,0-18.25-10.58-30.42,0,0,0-14.78-10.58-24.34-.88,0,0,6.08-24.68-20.86-27.33-26.95-2.64-28.68,13.22-28.68,13.22,0,0-21.73-10.58-26.95,10.58,0,0-35.64-4.41-31.29,10.58Z"/><path class="cls-2" d="M483.11,42.4s7.82,16.75,28.69,7.05c0,0,21.73,8.81,33.03.88,0,0,28.69,20.27,60.85,2.64,0,0,19.99,10.58,39.99-.88,0,0,11.3,7.93,26.95-1.76,0,0,7.82,11.46,24.34,1.76,0,0,6.08,10.58,26.08-.88,0,0,17.39,15.87,41.72,2.64,0,0,13.04,8.82,30.42-2.64,0,0,31.29,19.39,63.46.88,0,0,7.82,7.93,22.6-.88,0,0,12.17,9.7,24.34,0,0,0,3.48,3.53,15.65,3.53,0,0,8.81,0,8.81-10.14s-8.81-8.37-8.81-8.37c0,0-15.65-14.1-40.86-4.41,0,0-33.03-30.85-75.62-9.7,0,0-10.43-23.8-36.51-22.04-26.08,1.76-33.03,20.27-33.03,20.27,0,0-24.34-9.7-31.29,7.05,0,0-17.38-7.05-18.25,6.17,0,0-26.08-15.87-39.99,2.64,0,0-18.25-10.58-30.42,0,0,0-14.78-10.58-24.34-.88,0,0,6.08-24.68-20.86-27.33-26.95-2.64-28.68,13.22-28.68,13.22,0,0-21.73-10.58-26.95,10.58,0,0-35.64-4.41-31.29,10.58Z"/></g></g></g></svg>