<?xml version="1.0" encoding="UTF-8"?><svg id="Layer_2" xmlns="http://www.w3.org/2000/svg" viewBox="0 0 1024 106"><defs><style>.cls-1{fill:#633e2c;}.cls-1,.cls-2,.cls-3,.cls-4,.cls-5,.cls-6,.cls-7,.cls-8,.cls-9,.cls-10,.cls-11,.cls-12,.cls-13{stroke-width:0px;}.cls-2{fill:#472c1f;}.cls-3{fill:#4e3122;}.cls-4{fill:#553526;}.cls-5{fill:#5c3a29;}.cls-6{fill:#2b1f19;}.cls-7{fill:#281d17;}.cls-8{fill:#889c37;}.cls-9{fill:#36271f;}.cls-10{fill:#1c1410;}.cls-11{fill:#40281c;}.cls-12{fill:#bfdb4d;}.cls-13{fill:#a6bf43;}</style></defs><g id="Classic_3_"><g id="Classic_1"><g id="ground"><rect class="cls-11" y="2" width="1024" height="52"/><rect class="cls-2" y="16.4" width="1024" height="48"/><rect class="cls-3" y="30.8" width="1024" height="44"/><rect class="cls-4" y="45.2" width="1024" height="40"/><rect class="cls-5" y="59.6" width="1024" height="36"/><rect class="cls-1" y="74" width="1024" height="32"/><path class="cls-6" d="M7.5,42.5c4.54-.45,7.84-17.36,8.41-20.5h.34c1.34,2.63,7.89,14.95,13.25,14.5,6-.5,11-14.5,11-14.5,0,0,11.5,11,19.5,10.5,5.19-.32,8.06-6.32,9.44-10.5h1.98c1.51,5.44,5.08,14.5,12.08,14.5,10,0,8.5-14,8.5-14l2.11-.5h1.5c-.7,3.01-1.14,6.8,1.06,7,2.42.22,3.1-4.06,3.28-7h.81c.59,1.69,1.48,3.52,2.58,3.33.91-.15,1.33-1.33,1.53-2.57-.01,2.99.36,6.99,2.47,6.57,2.05-.41,2.59-4.36,2.7-7.33h1.43c.96,6.46,3.72,18.5,11.04,18.5,8.33,0,9.03-13.86,9.03-18.5h1.34c-.75,2.49-1.49,6.12.47,6.33,1.57.17,2.41-2.21,2.85-4.52-.27,3.5-.21,7.99,1.82,8.19,2.55.25,3.93-6.72,4.44-10h.21c.02,2.34.27,6.33,1.68,6.33s2.42-3.87,2.95-6.33h2.15c-.79,4.66-1.83,13.14,1.07,13.5,3.23.4,5.48-9.62,6.23-13.5h2.45c-1.62,4.8-4.78,15.33-1.18,15.33s6.23-11.06,7.04-15.33h3.77c-1.11,3.42-2.3,8.22-.14,8,2.36-.24,4.39-5.15,5.37-8h.35c-.44,3.51-1.04,10.42.95,10.67,1.87.23,3.25-6.58,3.9-10.67h5.01c-.73,3.7-1.18,9.5,3.25,9.5,3.93,0,12.99-5.31,19.53-9.5h7.65c.91,5.63,4.71,14,19.32,14,15.68,0,41.78-8.89,55.48-14h10.33c3.04,7.6,11.15,24.89,21.69,24.5,10.94-.41,11.37-17.89,11.14-24.5h2.59c5.59,4.92,18.58,15.38,27.77,15,8.62-.36,14.65-9.74,17.37-15h5.09c5.66,5.46,17.06,15.36,25.04,15,6.48-.29,13.82-8.39,18.77-15h1.67c-1.34,5.56-4.24,19.45.57,18.25,4.72-1.18,4.49-13.18,4.18-18.25h3.29c-.24,1.96-1.75,15.19,1.03,14.5,3-.75,2.5-14,2.5-14l4.5-.5s-1.75,15.75.5,15.25c1.83-.41,2.34-11.22,2.46-15.25h23.59c-1.39,3-2.7,6.88-.14,6.88s4.52-4.01,5.48-6.88h.48c-.35,4.01-.45,10.87,2.97,10.51,3.41-.35,3.25-6.77,2.85-10.51h.37c.99,3.16,2.89,7.93,5.26,7.25,2.18-.62,1.64-4.46.92-7.25h4.21c.02,3.01.37,8.67,2.69,8.67s2.48-5.44,2.43-8.67h50.83c-.34,2.49-1.36,13.56,7.08,14,7.43.39,11.8-9.62,13.36-14h29.96c.61,4.37,2.41,10.66,7.68,10,5.84-.73,7.95-6.78,8.66-10h.93c1.41,4.32,5.39,14.22,12.41,15,6.73.75,7.31-9.69,7.17-15h1.15c2.77,5.8,9.77,18,19.68,18s11.68-12.2,11.97-18h2.64c4.9,5.31,15.92,15.75,26.39,15,10.92-.78,21.83-10.68,26.11-15h5.32c7.95,4.43,28.3,14.57,45.57,13,13.64-1.24,23.43-7.48,28.91-12.04-.79,2.03-1.13,4.04.59,4.04,1.56,0,2.37-1.44,2.8-3.04-.23,3.61-.09,8.2,2.2,8.04,2.77-.18,2.68-6.64,2.44-10h.29c.74,2.82,2.25,7.6,4.02,7.25,1.71-.34,1.64-4.53,1.42-7.15,11.73,5.25,32.85,13.59,47.33,12.9,11.75-.56,23.18-6.44,30.97-11.51-1.15,1.8-1.82,3.57-.47,4.01,2.02.67,4.38-3.02,5.7-5.5h.66c-.57,3.53-1.39,10.26.63,10.81,1.95.53,3.14-6.61,3.67-10.81h1.14c.88,2.82,2.35,6.58,3.93,6.27,1.52-.3,1.93-3.68,2.02-6.27h1.22c4.22,2.24,10.43,4.97,19.51,8,18.93,6.31,38.47-3.55,45.89-8h4.92c4.63,4.57,17.87,14.34,36.19,0v-1.77c-20.92,8.32-32.75-1.54-41.5-3.73-10-2.5-20.5,6.5-36,8.5s-37-12.5-41-9-28,22-55,8-41.5-5-59.5.5-41.5-4-50.5-7.5-27.5,6.5-35,8.5-23.5-9-30.5-9.5-14.5,17.5-20.5,8.5-18.5-5-24.5-2.5-19-7.5-23.5-5.5-38.17,4.83-41.17-2.17-45.33-.83-54.33,2.67-57.5,5-69,0-33.5,8-39.5,9.5-14.5-9.5-21.5-10.5-9.5,10.5-15,12-26-9.5-32-12-8,13.5-14,15.5-15-8.5-21-13-17.5-2.5-23,2-44.5,11-50,6-10-6.5-17.5-8-12.5,7-17,7.5-6.5-7.5-12-7-14.46,3-15.5-1c-1.04-4-13-2-17.5.5s-9.5-1-14-2.5-6.5,16-11.5,17.5-4-17-10.5-16.5-5.5,2.5-12,1-11.5,5.5-15,7.5-9.5-5.5-16-7-4.5,7.5-9,9-13.5-12.5-17.5-10-15.5,6.5-21,1-8,5-12.5,8c-2.13,1.42-4.93-.52-7.29-2.96.69,4.83,3.12,19.38,7.29,18.96Z"/><path class="cls-13" d="M0,0v20s2.5,21,7.5,20.5c4.54-.45,7.84-17.36,8.41-20.5h.34c1.34,2.63,7.89,14.95,13.25,14.5,6-.5,11-14.5,11-14.5,0,0,11.5,11,19.5,10.5,5.19-.32,8.06-6.32,9.44-10.5h1.98c1.51,5.44,5.08,14.5,12.08,14.5,10,0,8.5-14,8.5-14l2.11-.5h1.5c-.7,3.01-1.14,6.8,1.06,7,2.42.22,3.1-4.06,3.28-7h.81c.59,1.69,1.48,3.52,2.58,3.33.91-.15,1.33-1.33,1.53-2.57-.01,2.99.36,6.99,2.47,6.57,2.05-.41,2.59-4.36,2.7-7.33h1.43c.96,6.46,3.72,18.5,11.04,18.5,8.33,0,9.03-13.86,9.03-18.5h1.34c-.75,2.49-1.49,6.12.47,6.33,1.57.17,2.41-2.21,2.85-4.52-.27,3.5-.21,7.99,1.82,8.19,2.55.25,3.93-6.72,4.44-10h.21c.02,2.34.27,6.33,1.68,6.33s2.42-3.87,2.95-6.33h2.15c-.79,4.66-1.83,13.14,1.07,13.5,3.23.4,5.48-9.62,6.23-13.5h2.45c-1.62,4.8-4.78,15.33-1.18,15.33s6.23-11.06,7.04-15.33h3.77c-1.11,3.42-2.3,8.22-.14,8,2.36-.24,4.39-5.15,5.37-8h.35c-.44,3.51-1.04,10.42.95,10.67,1.87.23,3.25-6.58,3.9-10.67h5.01c-.73,3.7-1.18,9.5,3.25,9.5,3.93,0,12.99-5.31,19.53-9.5h7.65c.91,5.63,4.71,14,19.32,14,15.68,0,41.78-8.89,55.48-14h10.33c3.04,7.6,11.15,24.89,21.69,24.5,10.94-.41,11.37-17.89,11.14-24.5h2.59c5.59,4.92,18.58,15.38,27.77,15,8.62-.36,14.65-9.74,17.37-15h5.09c5.66,5.46,17.06,15.36,25.04,15,6.48-.29,13.82-8.39,18.77-15h1.67c-1.34,5.56-4.24,19.45.57,18.25,4.72-1.18,4.49-13.18,4.18-18.25h3.29c-.24,1.96-1.75,15.19,1.03,14.5,3-.75,2.5-14,2.5-14l4.5-.5s-1.75,15.75.5,15.25c1.83-.41,2.34-11.22,2.46-15.25h23.59c-1.39,3-2.7,6.88-.14,6.88s4.52-4.01,5.48-6.88h.48c-.35,4.01-.45,10.87,2.97,10.51,3.41-.35,3.25-6.77,2.85-10.51h.37c.99,3.16,2.89,7.93,5.26,7.25,2.18-.62,1.64-4.46.92-7.25h4.21c.02,3.01.37,8.67,2.69,8.67s2.48-5.44,2.43-8.67h50.83c-.34,2.49-1.36,13.56,7.08,14,7.43.39,11.8-9.62,13.36-14h29.96c.61,4.37,2.41,10.66,7.68,10,5.84-.73,7.95-6.78,8.66-10h.93c1.41,4.32,5.39,14.22,12.41,15,6.73.75,7.31-9.69,7.17-15h1.15c2.77,5.8,9.77,18,19.68,18s11.68-12.2,11.97-18h2.64c4.9,5.31,15.92,15.75,26.39,15,10.92-.78,21.83-10.68,26.11-15h5.32c7.95,4.43,28.3,14.57,45.57,13,13.64-1.24,23.43-7.48,28.91-12.04-.79,2.03-1.13,4.04.59,4.04,1.56,0,2.37-1.44,2.8-3.04-.23,3.61-.09,8.2,2.2,8.04,2.77-.18,2.68-6.64,2.44-10h.29c.74,2.82,2.25,7.6,4.02,7.25,1.71-.34,1.64-4.53,1.42-7.15,11.73,5.25,32.85,13.59,47.33,12.9,11.75-.56,23.18-6.44,30.97-11.51-1.15,1.8-1.82,3.57-.47,4.01,2.02.67,4.38-3.02,5.7-5.5h.66c-.57,3.53-1.39,10.26.63,10.81,1.95.53,3.14-6.61,3.67-10.81h1.14c.88,2.82,2.35,6.58,3.93,6.27,1.52-.3,1.93-3.68,2.02-6.27h1.22c4.22,2.24,10.43,4.97,19.51,8,18.93,6.31,38.47-3.55,45.89-8h4.92c4.63,4.57,17.87,14.34,36.19,0V0H0Z"/><path class="cls-12" d="M184.25,26h-.33c.05.28.1.56.18.82.05-.28.1-.56.15-.82Z"/><path class="cls-12" d="M551.92,26h-.07c0,.08.02.17.04.25.01-.09.02-.17.03-.25Z"/><path class="cls-12" d="M148.68,26c-.13,1.79-.13,3.53.09,4.88.17-1.76.42-3.49.66-4.88h-.76Z"/><rect class="cls-12" width="1024" height="6"/><path class="cls-10" d="M1024,51.12c-1.88-.47-4.14-.93-6.75-1.32-7.95-1.18-19.21-1.93-33.44-2.11-14.23-.19-31.41.16-51.06.79-19.66.68-41.79,1.63-65.91,2.84-12.06.57-24.61,1.17-37.61,1.78-12.99.6-26.42,1.22-40.2,1.63-6.89.21-13.87.38-20.92.45-7.02.05-14.2.06-21.12-.45-1.71-.14-3.43-.32-4.89-.61-.84-.17-.95-.2-2.05-.57l-.87-.29-.78-.21c-.51-.13-1.04-.27-1.52-.37-3.91-.83-7.61-1.31-11.36-1.78-7.48-.86-14.96-1.66-22.51-2.33-30.19-2.73-61.33-5.41-93.04-6.68-31.71-1.3-63.95-1.51-96.2-.93-16.13.24-32.25.66-48.34,1.12-8.07.31-16.03.42-24.28,1.16-.96.09-2.36.24-3.24.4l-1.49.25-1.39.21c-1.89.26-3.84.48-5.78.69-3.9.41-7.83.76-11.76,1.09-31.46,2.57-62.61,4.07-92.71,5.18-15.06.51-29.87.83-44.36,1-14.49.19-28.67.1-42.41-.33-6.87-.23-13.64-.54-20.2-1.13-3.28-.3-6.52-.67-9.56-1.22-1.6-.32-2.66-.54-4.23-1.09-1.95-.68-3.67-1-5.4-1.3-6.83-1.07-13.26-1.44-19.63-1.84-6.35-.34-12.56-.63-18.64-.79-12.16-.35-23.78-.35-34.82.01-11.03.38-21.49.85-31.31,1.35-19.63,1.05-36.72,2.23-50.78,3.32-14.06,1.07-25.09,2.13-32.62,2.81-3.76.34-10.28-.8-10.77-.75v13.38s16.3-.63,44.34-2.57c14.02-.97,31.05-2.18,50.58-3.43,9.76-.64,20.15-1.29,31.1-1.87,10.93-.67,22.43-1.38,34.42-2.11,5.99-.32,12.1-.63,18.31-.7,3.1-.06,6.22,0,9.35.1,3.12.09,6.26.32,9.26.75,1.48.21,2.99.48,4.14.86,1.54.53,3.69,1.04,5.34,1.33,3.47.6,6.86.94,10.28,1.23,6.82.55,13.69.81,20.64.98,27.8.55,57,0,87.2-.87,15.1-.4,30.45-.93,45.98-1.6,15.54-.65,31.26-1.36,47.13-2.42,3.97-.27,7.95-.56,11.96-.92,2.01-.19,4.02-.38,6.08-.63l3.03-.42.74-.1.63-.05c.41-.04.84-.08,1.33-.1,3.79-.25,7.77-.34,11.73-.4,3.96-.06,7.95-.07,11.94-.02,15.97.11,32.03.76,48.09,1.36,32.12,1.37,64.24,2.69,95.86,3.46,7.91.17,15.78.34,23.62.5,7.84.12,15.63.25,23.38.37,15.5.25,30.81.56,45.81,1.31,7.49.42,14.93.83,22.17,1.63,3.6.39,7.23.83,10.51,1.47.43.07.78.17,1.16.26l.55.13.43.14.22.06s.44.15.42.14l.33.11.52.15c.38.11.66.17.93.24.28.07.55.12.82.17,2.12.41,4.03.59,5.93.75,7.56.55,14.77.51,21.93.46,7.15-.08,14.18-.26,21.11-.48,27.71-.92,53.83-2.11,77.95-3.07,24.11-.91,46.2-1.67,65.76-1.94,19.55-.33,36.58-.18,50.51.37,13.91.56,24.76,1.53,31.69,2.88,3.47.65,5.92,1.35,7.36,1.88.68.25,1.14.45,1.44.59v-13.38Z"/><path class="cls-7" d="M1024,54.12c-1.88-.47-4.14-.93-6.75-1.32-7.95-1.18-19.21-1.93-33.44-2.11-14.23-.19-31.41.16-51.06.79-19.66.68-41.79,1.63-65.91,2.84-12.06.57-24.61,1.17-37.61,1.78-12.99.6-26.42,1.22-40.2,1.63-6.89.21-13.87.38-20.92.45-7.02.05-14.2.06-21.12-.45-1.71-.14-3.43-.32-4.89-.61-.84-.17-.95-.2-2.05-.57l-.87-.29-.78-.21c-.51-.13-1.04-.27-1.52-.37-3.91-.83-7.61-1.31-11.36-1.78-7.48-.86-14.96-1.66-22.51-2.33-30.19-2.73-61.33-5.41-93.04-6.68-31.71-1.3-63.95-1.51-96.2-.93-16.13.24-32.25.66-48.34,1.12-8.07.31-16.03.42-24.28,1.16-.96.09-2.36.24-3.24.4l-1.49.25-1.39.21c-1.89.26-3.84.48-5.78.69-3.9.41-7.83.76-11.76,1.09-31.46,2.57-62.61,4.07-92.71,5.18-15.06.51-29.87.83-44.36,1-14.49.19-28.67.1-42.41-.33-6.87-.23-13.64-.54-20.2-1.13-3.28-.3-6.52-.67-9.56-1.22-1.6-.32-2.66-.54-4.23-1.09-1.95-.68-3.67-1-5.4-1.3-6.83-1.07-13.26-1.44-19.63-1.84-6.35-.34-12.56-.63-18.64-.79-12.16-.35-23.78-.35-34.82.01-11.03.38-21.49.85-31.31,1.35-19.63,1.05-36.72,2.23-50.78,3.32-14.06,1.07-25.09,2.13-32.62,2.81-3.76.34-10.28-.8-10.77-.75v13.38s16.3-.63,44.34-2.57c14.02-.97,31.05-2.18,50.58-3.43,9.76-.64,20.15-1.29,31.1-1.87,10.93-.67,22.43-1.38,34.42-2.11,5.99-.32,12.1-.63,18.31-.7,3.1-.06,6.22,0,9.35.1,3.12.09,6.26.32,9.26.75,1.48.21,2.99.48,4.14.86,1.54.53,3.69,1.04,5.34,1.33,3.47.6,6.86.94,10.28,1.23,6.82.55,13.69.81,20.64.98,27.8.55,57,0,87.2-.87,15.1-.4,30.45-.93,45.98-1.6,15.54-.65,31.26-1.36,47.13-2.42,3.97-.27,7.95-.56,11.96-.92,2.01-.19,4.02-.38,6.08-.63l3.03-.42.74-.1.63-.05c.41-.04.84-.08,1.33-.1,3.79-.25,7.77-.34,11.73-.4,3.96-.06,7.95-.07,11.94-.02,15.97.11,32.03.76,48.09,1.36,32.12,1.37,64.24,2.69,95.86,3.46,7.91.17,15.78.34,23.62.5,7.84.12,15.63.25,23.38.37,15.5.25,30.81.56,45.81,1.31,7.49.42,14.93.83,22.17,1.63,3.6.39,7.23.83,10.51,1.47.43.07.78.17,1.16.26l.55.13.43.14.22.06s.44.15.42.14l.33.11.52.15c.38.11.66.17.93.24.28.07.55.12.82.17,2.12.41,4.03.59,5.93.75,7.56.55,14.77.51,21.93.46,7.15-.08,14.18-.26,21.11-.48,27.71-.92,53.83-2.11,77.95-3.07,24.11-.91,46.2-1.67,65.76-1.94,19.55-.33,36.58-.18,50.51.37,13.91.56,24.76,1.53,31.69,2.88,3.47.65,5.92,1.35,7.36,1.88.68.25,1.44,1.09,1.44.59,0-14.33,0-13.38,0-13.38Z"/><path class="cls-6" d="M0,75.27v16.67s252-16,312-6.67c60,9.33,200-4.67,298-4.67s414,11.33,414,11.33v-16.67s-378-13.33-434-4.67-267,4-288-.67C284.35,66.01,0,75.27,0,75.27Z"/><path class="cls-9" d="M0,78.27v16.67s252-16,312-6.67c60,9.33,200-4.67,298-4.67s414,11.33,414,11.33v-16.67s-378-13.33-434-4.67-267,4-288-.67C284.35,69.01,0,78.27,0,78.27Z"/><path class="cls-8" d="M7.5,40.5c4.54-.45,7.84-17.36,8.41-20.5h.34c1.34,2.63,7.89,14.95,13.25,14.5,6-.5,11-14.5,11-14.5,0,0,11.5,11,19.5,10.5,5.19-.32,8.06-6.32,9.44-10.5h1.98c1.51,5.44,5.08,14.5,12.08,14.5,10,0,8.5-14,8.5-14l2.11-.5h1.5c-.7,3.01-1.14,6.8,1.06,7,2.42.22,3.1-4.06,3.28-7h.81c.59,1.69,1.48,3.52,2.58,3.33.91-.15,1.33-1.33,1.53-2.57-.01,2.99.36,6.99,2.47,6.57,2.05-.41,2.59-4.36,2.7-7.33h1.43c.96,6.46,3.72,18.5,11.04,18.5,8.33,0,9.03-13.86,9.03-18.5h1.34c-.75,2.49-1.49,6.12.47,6.33,1.57.17,2.41-2.21,2.85-4.52-.27,3.5-.21,7.99,1.82,8.19,2.55.25,3.93-6.72,4.44-10h.21c.02,2.34.27,6.33,1.68,6.33s2.42-3.87,2.95-6.33h2.15c-.79,4.66-1.83,13.14,1.07,13.5,3.23.4,5.48-9.62,6.23-13.5h2.45c-1.62,4.8-4.78,15.33-1.18,15.33s6.23-11.06,7.04-15.33h3.77c-1.11,3.42-2.3,8.22-.14,8,2.36-.24,4.39-5.15,5.37-8h.35c-.44,3.51-1.04,10.42.95,10.67,1.87.23,3.25-6.58,3.9-10.67h5.01c-.73,3.7-1.18,9.5,3.25,9.5,3.93,0,12.99-5.31,19.53-9.5h7.65c.91,5.63,4.71,14,19.32,14,15.68,0,41.78-8.89,55.48-14h10.33c3.04,7.6,11.15,24.89,21.69,24.5,10.94-.41,11.37-17.89,11.14-24.5h2.59c5.59,4.92,18.58,15.38,27.77,15,8.62-.36,14.65-9.74,17.37-15h5.09c5.66,5.46,17.06,15.36,25.04,15,6.48-.29,13.82-8.39,18.77-15h1.67c-1.34,5.56-4.24,19.45.57,18.25,4.72-1.18,4.49-13.18,4.18-18.25h3.29c-.24,1.96-1.75,15.19,1.03,14.5,3-.75,2.5-14,2.5-14l4.5-.5s-1.75,15.75.5,15.25c1.83-.41,2.34-11.22,2.46-15.25h23.59c-1.39,3-2.7,6.88-.14,6.88s4.52-4.01,5.48-6.88h.48c-.35,4.01-.45,10.87,2.97,10.51,3.41-.35,3.25-6.77,2.85-10.51h.37c.99,3.16,2.89,7.93,5.26,7.25,2.18-.62,1.64-4.46.92-7.25h4.21c.02,3.01.37,8.67,2.69,8.67s2.48-5.44,2.43-8.67h50.83c-.34,2.49-1.36,13.56,7.08,14,7.43.39,11.8-9.62,13.36-14h29.96c.61,4.37,2.41,10.66,7.68,10,5.84-.73,7.95-6.78,8.66-10h.93c1.41,4.32,5.39,14.22,12.41,15,6.73.75,7.31-9.69,7.17-15h1.15c2.77,5.8,9.77,18,19.68,18s11.68-12.2,11.97-18h2.64c4.9,5.31,15.92,15.75,26.39,15,10.92-.78,21.83-10.68,26.11-15h5.32c7.95,4.43,28.3,14.57,45.57,13,13.64-1.24,23.43-7.48,28.91-12.04-.79,2.03-1.13,4.04.59,4.04,1.56,0,2.37-1.44,2.8-3.04-.23,3.61-.09,8.2,2.2,8.04,2.77-.18,2.68-6.64,2.44-10h.29c.74,2.82,2.25,7.6,4.02,7.25,1.71-.34,1.64-4.53,1.42-7.15,11.73,5.25,32.85,13.59,47.33,12.9,11.75-.56,23.18-6.44,30.97-11.51-1.15,1.8-1.82,3.57-.47,4.01,2.02.67,4.38-3.02,5.7-5.5h.66c-.57,3.53-1.39,10.26.63,10.81,1.95.53,3.14-6.61,3.67-10.81h1.14c.88,2.82,2.35,6.58,3.93,6.27,1.52-.3,1.93-3.68,2.02-6.27h1.22c4.22,2.24,10.43,4.97,19.51,8,18.93,6.31,38.47-3.55,45.89-8h4.92c4.63,4.57,17.87,14.34,36.19,0v-1.77c-20.92,8.32-32.75-1.54-41.5-3.73-10-2.5-20.5,6.5-36,8.5s-37-12.5-41-9-28,22-55,8-41.5-5-59.5.5-41.5-4-50.5-7.5-27.5,6.5-35,8.5-23.5-9-30.5-9.5-14.5,17.5-20.5,8.5-18.5-5-24.5-2.5-19-7.5-23.5-5.5-40,9-43,2-43.5-5-52.5-1.5-57.5,5-69,0-33.5,8-39.5,9.5-14.5-9.5-21.5-10.5-9.5,10.5-15,12-26-9.5-32-12-8,13.5-14,15.5-15-8.5-21-13-17.5-2.5-23,2-44.5,11-50,6-10-6.5-17.5-8-12.5,7-17,7.5-6.5-7.5-12-7-14.46,3-15.5-1c-1.04-4-13-2-17.5.5s-9.5-1-14-2.5-6.5,16-11.5,17.5-4-17-10.5-16.5-5.5,2.5-12,1-11.5,5.5-15,7.5-9.5-5.5-16-7-4.5,7.5-9,9-13.5-12.5-17.5-10-15.5,6.5-21,1-8,5-12.5,8c-2.13,1.42-4.93-.52-7.29-2.96.69,4.83,3.12,19.38,7.29,18.96Z"/></g></g></g></svg>