<?xml version="1.0" encoding="UTF-8"?><svg id="Layer_2" xmlns="http://www.w3.org/2000/svg" viewBox="0 0 1024 274.5"><defs><style>.cls-1{fill:#769eb8;stroke-width:0px;}</style></defs><g id="Classic_3_"><g id="Classic_1"><g id="tree3"><path class="cls-1" d="M952.65,45.33c3.12,0,5.65,2.53,5.65,5.65,0,.5-.07.99-.2,1.46.07.32.13.65.2,1.02.71,4,4.54,5.18,7.02,5.52l.75-4.1s.26-5.14,2.09-4.23c.52-1.48.48-2.97.26-4.2-1.3.64-2.75,1.01-4.3,1.01-5.36,0-9.71-4.35-9.71-9.71s4.35-9.71,9.71-9.71,9.71,4.35,9.71,9.71c0,3.22-1.57,6.06-3.98,7.83,1.86,2.46.79,5.17-.12,6.69,3.17,3.17,10.46,1.91,10.46,1.91,0,0-1.04-2.47-1.56-4.69-2.73-.49-4.8-2.86-4.8-5.73,0-3.22,2.61-5.83,5.83-5.83s5.83,2.61,5.83,5.83c0,2.45-1.51,4.54-3.65,5.4,1.23,3.44,2.83,9.3-.94,8.55-5.3-1.06-10.95-2.83-10.95-2.83l7.77,26.14-15.89-2.83,3.01-16.54c-3.21-.91-6.61-3.77-8.43-6.45-1,.89-2.31,1.44-3.76,1.44-3.12,0-5.65-2.53-5.65-5.65s2.53-5.65,5.65-5.65Z"/></g><g id="tree1"><path class="cls-1" d="M111.5,24.5c-4.42,0-8,3.58-8,8,0,.71.1,1.4.28,2.06-.09.45-.19.92-.28,1.44-1,5.66-6.42,7.33-9.94,7.81l-1.06-5.81s-.37-7.28-2.96-5.99c-.74-2.1-.68-4.2-.37-5.94,1.84.91,3.9,1.43,6.08,1.43,7.59,0,13.75-6.16,13.75-13.75S102.84,0,95.25,0s-13.75,6.16-13.75,13.75c0,4.56,2.23,8.58,5.64,11.09-2.63,3.48-1.12,7.32.16,9.47-4.49,4.49-14.8,2.7-14.8,2.7,0,0,1.47-3.5,2.2-6.64,3.86-.69,6.8-4.05,6.8-8.11,0-4.56-3.69-8.25-8.25-8.25s-8.25,3.69-8.25,8.25c0,3.46,2.14,6.43,5.17,7.65-1.75,4.88-4,13.17,1.33,12.1,7.5-1.5,15.5-4,15.5-4l-11,37,22.5-4-4.26-23.41c4.55-1.29,9.36-5.34,11.94-9.13,1.41,1.26,3.27,2.04,5.32,2.04,4.42,0,8-3.58,8-8s-3.58-8-8-8Z"/></g><g id="hill2"><path class="cls-1" d="M0,99.46s72.61-37.37,108.61-31.37c36,6,70.5,34.49,109.49,28.49,39-6,55.5-17.99,128.99-17.99s113.99,24,136.49,21,125.99-25.5,175.49-27c49.5-1.5,109.49,25.5,146.99,19.5,37.5-6,106.5-30,139.49-25.5,33,4.5,78.43,32.91,78.43,32.91v175H0V99.46Z"/></g></g></g></svg>