<?xml version="1.0" encoding="UTF-8"?><svg id="Layer_2" xmlns="http://www.w3.org/2000/svg" viewBox="0 0 471.08 23.41"><defs><style>.cls-1{fill:#755534;}.cls-1,.cls-2,.cls-3{stroke-width:0px;}.cls-2{fill:#664a2d;}.cls-3{fill:#996f44;}</style></defs><g id="Classic_3_"><g id="Classic_1"><g id="rock2"><path class="cls-3" d="M468.33,23.32c2.83-3.97,13.6-21.54-41.38-23.24-48.35-1.5-36.65,18.49-33.13,23.33h74.42s.07-.06.09-.09Z"/><path class="cls-1" d="M468.33,23.32c1.92-2.7,7.51-11.67-6.35-17.68-6.57-1.69-15.69-2.9-28.23-3.29-42.68-1.32-38.57,14.09-34.59,21.06h69.09s.06-.06.08-.09Z"/><path class="cls-2" d="M468.33,23.32c1.92-2.7,7.51-11.67-6.35-17.68-6.57-1.69-15.69-2.9-28.23-3.29-8.69-.27-15.44.16-20.65,1.06,1.18.01,2.38.03,3.64.07,45.04,1.39,45.96,13.44,43.26,19.93h8.24s.06-.06.08-.09Z"/><path class="cls-3" d="M419.38,23.13c1.75-2.45,8.4-13.3-25.56-14.36-30.68-.95-22.21,12.1-20.29,14.63h45.43c.21-.09.35-.18.42-.28Z"/><path class="cls-1" d="M419.38,23.13c1.19-1.67,4.64-7.21-3.92-10.92-4.06-1.04-9.69-1.79-17.44-2.03-26.84-.83-23.72,9.05-21.23,13.23h42.15c.21-.09.37-.18.44-.28Z"/><path class="cls-2" d="M419.38,23.13c1.19-1.67,4.64-7.21-3.92-10.92-4.06-1.04-9.69-1.79-17.44-2.03-5.37-.17-9.54.1-12.75.66.73,0,1.47.02,2.25.04,28.35.88,28.4,8.58,26.62,12.53h4.8c.21-.09.37-.18.44-.28Z"/></g><g id="rock1"><path class="cls-3" d="M69.09,22.91c2.5-3.5,12-19-36.5-20.5C-11.67,1.04,1.11,20.07,3.68,23.41h64.53c.44-.15.74-.32.88-.5Z"/><path class="cls-1" d="M69.09,22.91c1.7-2.38,6.62-10.29-5.6-15.6-5.8-1.49-13.84-2.56-24.9-2.9C.04,3.22,4.76,17.49,8.32,23.41h59.9c.44-.15.73-.32.86-.5Z"/><path class="cls-2" d="M69.09,22.91c1.7-2.38,6.62-10.29-5.6-15.6-5.8-1.49-13.84-2.56-24.9-2.9-7.67-.24-13.62.14-18.21.94,1.04,0,2.1.03,3.21.06,40.73,1.26,40.56,12.39,37.97,18h6.66c.44-.15.74-.32.87-.5Z"/></g></g></g></svg>