<?xml version="1.0" encoding="UTF-8"?><svg id="Layer_2" xmlns="http://www.w3.org/2000/svg" viewBox="0 0 1024 474"><defs><style>.cls-1{fill:#76c4e8;}.cls-1,.cls-2,.cls-3,.cls-4,.cls-5,.cls-6,.cls-7,.cls-8,.cls-9,.cls-10,.cls-11,.cls-12,.cls-13,.cls-14,.cls-15,.cls-16,.cls-17,.cls-18,.cls-19,.cls-20,.cls-21,.cls-22,.cls-23,.cls-24,.cls-25,.cls-26,.cls-27,.cls-28,.cls-29,.cls-30,.cls-31,.cls-32,.cls-33,.cls-34,.cls-35,.cls-36,.cls-37,.cls-38,.cls-39,.cls-40,.cls-41,.cls-42,.cls-43,.cls-44,.cls-45,.cls-46,.cls-47,.cls-48,.cls-49,.cls-50,.cls-51,.cls-52,.cls-53,.cls-54,.cls-55,.cls-56,.cls-57,.cls-58,.cls-59,.cls-60,.cls-61,.cls-62,.cls-63,.cls-64,.cls-65,.cls-66{stroke-width:0px;}.cls-2{fill:#a7daf3;}.cls-3{fill:#c3e8f9;}.cls-4{fill:#d0eefb;}.cls-5{fill:#d1effc;}.cls-6{fill:#caebfa;}.cls-7{fill:#dcf4fe;}.cls-8{fill:#ddf5fe;}.cls-9{fill:#daf3fd;}.cls-10{fill:#cfeefb;}.cls-11{fill:#c4e8f9;}.cls-12{fill:#c8eafa;}.cls-13{fill:#c9ebfa;}.cls-14{fill:#cbecfa;}.cls-15{fill:#afdef4;}.cls-16{fill:#d8f2fd;}.cls-17{fill:#dff6fe;}.cls-18{fill:#c6e9f9;}.cls-19{fill:#aeddf4;}.cls-20{fill:#c5e9f9;}.cls-21{fill:#e1f7ff;}.cls-22{fill:#def5fe;}.cls-23{fill:#e0f6ff;}.cls-24{fill:#c7eafa;}.cls-25{fill:#d5f1fc;}.cls-26{fill:#abdcf4;}.cls-27{fill:#d3f0fc;}.cls-28{fill:#d4f0fc;}.cls-29{fill:#dbf4fe;}.cls-30{fill:#d2effc;}.cls-31{fill:#d9f3fd;}.cls-32{fill:#c0e6f8;}.cls-33{fill:#bbe4f7;}.cls-34{fill:#bee5f7;}.cls-35{fill:#a8daf3;}.cls-36{fill:#a5d9f2;}.cls-37{fill:#bfe6f8;}.cls-38{fill:#aadbf3;}.cls-39{fill:#c2e7f8;}.cls-40{fill:#bde5f7;}.cls-41{fill:#b1dff5;}.cls-42{fill:#acdcf4;}.cls-43{fill:#d7f2fd;}.cls-44{fill:#a3d8f2;}.cls-45{fill:#b0def5;}.cls-46{fill:#d6f1fd;}.cls-47{fill:#bce4f7;}.cls-48{fill:#a9dbf3;}.cls-49{fill:#ccecfb;}.cls-50{fill:#a6d9f3;}.cls-51{fill:#adddf4;}.cls-52{fill:#b2dff5;}.cls-53{fill:#ceedfb;}.cls-54{fill:#a4d8f2;}.cls-55{fill:#cdedfb;}.cls-56{fill:#b4e0f5;}.cls-57{fill:#b7e2f6;}.cls-58{fill:#b5e1f6;}.cls-59{fill:#b8e2f6;}.cls-60{fill:#bae3f7;}.cls-61{fill:#c1e7f8;}.cls-62{fill:#b3e0f5;}.cls-63{fill:#b6e1f6;}.cls-64{fill:#b9e3f6;}.cls-65{fill:#8ac9f3;}.cls-66{fill:#e2f7ff;}</style></defs><g id="Classic_3_"><g id="Classic_1"><g id="sky"><rect class="cls-1" x="0" width="1024" height="108"/><rect class="cls-44" x="0" y="99" width="1024" height="48"/><rect class="cls-54" x="0" y="104.11" width="1024" height="48"/><rect class="cls-36" x="0" y="109.22" width="1024" height="48"/><rect class="cls-50" x="0" y="114.33" width="1024" height="48"/><rect class="cls-2" x="0" y="119.44" width="1024" height="48"/><rect class="cls-35" x="0" y="124.55" width="1024" height="48"/><rect class="cls-48" x="0" y="129.66" width="1024" height="48"/><rect class="cls-38" x="0" y="134.77" width="1024" height="48"/><rect class="cls-26" x="0" y="139.88" width="1024" height="48"/><rect class="cls-42" x="0" y="144.98" width="1024" height="48"/><rect class="cls-51" x="0" y="150.09" width="1024" height="48"/><rect class="cls-19" x="0" y="155.2" width="1024" height="48"/><rect class="cls-15" x="0" y="160.31" width="1024" height="48"/><rect class="cls-45" x="0" y="165.42" width="1024" height="48"/><rect class="cls-41" x="0" y="170.53" width="1024" height="48"/><rect class="cls-52" x="0" y="175.64" width="1024" height="48"/><rect class="cls-62" x="0" y="180.75" width="1024" height="48"/><rect class="cls-56" x="0" y="185.86" width="1024" height="48"/><rect class="cls-58" x="0" y="190.97" width="1024" height="48"/><rect class="cls-63" x="0" y="196.08" width="1024" height="48"/><rect class="cls-57" x="0" y="201.19" width="1024" height="48"/><rect class="cls-59" x="0" y="206.3" width="1024" height="48"/><rect class="cls-64" x="0" y="211.41" width="1024" height="48"/><rect class="cls-60" x="0" y="216.52" width="1024" height="48"/><rect class="cls-33" x="0" y="221.62" width="1024" height="48"/><rect class="cls-47" x="0" y="226.73" width="1024" height="48"/><rect class="cls-40" x="0" y="231.84" width="1024" height="48"/><rect class="cls-34" x="0" y="236.95" width="1024" height="48"/><rect class="cls-37" x="0" y="242.06" width="1024" height="48"/><rect class="cls-32" x="0" y="247.17" width="1024" height="48"/><rect class="cls-61" x="0" y="252.28" width="1024" height="48"/><rect class="cls-39" x="0" y="257.39" width="1024" height="48"/><rect class="cls-3" x="0" y="262.5" width="1024" height="48"/><rect class="cls-3" x="0" y="267.61" width="1024" height="48"/><rect class="cls-11" x="0" y="272.72" width="1024" height="48"/><rect class="cls-20" x="0" y="277.83" width="1024" height="48"/><rect class="cls-18" x="0" y="282.94" width="1024" height="48"/><rect class="cls-24" x="0" y="288.05" width="1024" height="48"/><rect class="cls-12" x="0" y="293.16" width="1024" height="48"/><rect class="cls-13" x="0" y="298.27" width="1024" height="48"/><rect class="cls-6" x="0" y="303.38" width="1024" height="48"/><rect class="cls-14" x="0" y="308.48" width="1024" height="48"/><rect class="cls-49" x="0" y="313.59" width="1024" height="48"/><rect class="cls-55" x="0" y="318.7" width="1024" height="48"/><rect class="cls-53" x="0" y="323.81" width="1024" height="48"/><rect class="cls-10" x="0" y="328.92" width="1024" height="48"/><rect class="cls-4" x="0" y="334.03" width="1024" height="48"/><rect class="cls-5" x="0" y="339.14" width="1024" height="48"/><rect class="cls-30" x="0" y="344.25" width="1024" height="48"/><rect class="cls-27" x="0" y="349.36" width="1024" height="48"/><rect class="cls-28" x="0" y="354.47" width="1024" height="48"/><rect class="cls-25" x="0" y="359.58" width="1024" height="48"/><rect class="cls-46" x="0" y="364.69" width="1024" height="48"/><rect class="cls-43" x="0" y="369.8" width="1024" height="48"/><rect class="cls-16" x="0" y="374.91" width="1024" height="48"/><rect class="cls-31" x="0" y="380.02" width="1024" height="48"/><rect class="cls-9" x="0" y="385.12" width="1024" height="48"/><rect class="cls-29" x="0" y="390.23" width="1024" height="48"/><rect class="cls-7" x="0" y="395.34" width="1024" height="48"/><rect class="cls-8" x="0" y="400.45" width="1024" height="48"/><rect class="cls-22" x="0" y="405.56" width="1024" height="48"/><rect class="cls-17" x="0" y="410.67" width="1024" height="48"/><rect class="cls-23" x="0" y="415.78" width="1024" height="48"/><rect class="cls-21" x="0" y="420.89" width="1024" height="48"/><rect class="cls-66" x="0" y="426" width="1024" height="48"/><path class="cls-65" d="M0,105s44.88-2.65,85.67,11.67c43.94,15.43,72.69-16.07,119.19-16.07s162.38,25.4,247.87,4.4c85.5-21,338.29,30.19,432.53,4.6s118.74-4.1,138.74-4.1l-.1-20.5c-60.33-20-135.34-.5-188.4,8.17-53.07,8.67-235.33,1.75-314-8.92-78.67-10.67-106.42,4.96-136.71,5.64-30.29.68-163.1-8.4-189.29-8.4s-90.48,22.59-128.57,7.11C47.4,80.67,20.8,82.17,0,84.55"/></g></g></g></svg>