<?xml version="1.0" encoding="UTF-8"?><svg id="Layer_2" xmlns="http://www.w3.org/2000/svg" viewBox="0 0 1024 261.2"><defs><style>.cls-1{fill:#90b7d1;stroke-width:0px;}</style></defs><g id="Classic_3_"><g id="Classic_1"><g id="movutains"><path class="cls-1" d="M415,60.2c-33-13-40-40-80-39-34.73.87-34,9-56.37,41.23-9.27-12.22-44.38-24.8-53.03-22.64-17.83,4.46-39.55,27.47-55.87,35.71-14.38-13.98-16.05-66.47-37.13-61.2-7.21,1.8-21.37,59.07-25.5,67.5-5.5-11.09-33.01-45.07-39.61-43.09C47.5,44.7,0,86.2,0,86.2v175h1024V86.2S983,6.2,963,.2c-10.68-3.21-32.45,32.89-42,54-16.85-16.09-65.37-2.34-67.22,16.62-10.53-12.21-14.25-32.48-30.78-36.62-12.46-3.12-18.72,7.79-26.34,19-13.61-8.04-25.63-15.32-30.66-17-7.06-2.35-11.36,14-20.63,26.23-26.19-26.89-30.37-58.23-73.37-57.23-44.03,1.02-85,58-125,67s-98.65,1.14-132-12Z"/></g></g></g></svg>