<svg width="21" height="21" viewBox="0 0 21 21" fill="none" xmlns="http://www.w3.org/2000/svg">
<path d="M10.25 0.25C4.72768 0.25 0.25 4.72768 0.25 10.25C0.25 15.7723 4.72768 20.25 10.25 20.25C15.7723 20.25 20.25 15.7723 20.25 10.25C20.25 4.72768 15.7723 0.25 10.25 0.25ZM9.53571 5.42857C9.53571 5.33036 9.61607 5.25 9.71429 5.25H10.7857C10.8839 5.25 10.9643 5.33036 10.9643 5.42857V11.5C10.9643 11.5982 10.8839 11.6786 10.7857 11.6786H9.71429C9.61607 11.6786 9.53571 11.5982 9.53571 11.5V5.42857ZM10.25 15.25C9.96963 15.2443 9.70267 15.1289 9.50641 14.9286C9.31014 14.7283 9.20022 14.459 9.20022 14.1786C9.20022 13.8981 9.31014 13.6289 9.50641 13.4286C9.70267 13.2283 9.96963 13.1129 10.25 13.1071C10.5304 13.1129 10.7973 13.2283 10.9936 13.4286C11.1899 13.6289 11.2998 13.8981 11.2998 14.1786C11.2998 14.459 11.1899 14.7283 10.9936 14.9286C10.7973 15.1289 10.5304 15.2443 10.25 15.25Z" fill="black"/>
</svg>
