<svg width="60" height="60" viewBox="0 0 60 60" fill="none" xmlns="http://www.w3.org/2000/svg">
<path d="M55.0488 21.0254H50.5314C49.7633 10.3691 40.8486 1.93359 30 1.93359C19.1514 1.93359 10.2367 10.3691 9.46863 21.0254H4.95117C2.22105 21.0254 0 23.2465 0 25.9766V35.4639C0 38.194 2.22105 40.415 4.95117 40.415H11.1718C12.1426 40.415 12.9296 39.628 12.9296 38.6572V22.7832V22.5196C12.9296 18.9732 14.017 15.6763 15.8754 12.9438C17.4773 13.9941 19.3379 14.5399 21.2186 14.5398C22.6893 14.5398 24.172 14.2065 25.5516 13.5212C26.9415 12.8306 28.4382 12.4805 29.9999 12.4805C31.5616 12.4805 33.0582 12.8306 34.4482 13.5212C37.5918 15.0831 41.2695 14.8155 44.1243 12.9438C45.9826 15.6763 47.0701 18.9732 47.0701 22.5196V22.7832V38.6572V44.541C47.0701 47.6336 44.8918 50.2253 41.9895 50.8668C41.2214 48.8932 39.3022 47.4902 37.0604 47.4902H33.5302C30.6143 47.4902 28.2421 49.8625 28.2421 52.7783C28.2421 55.6942 30.6143 58.0664 33.5302 58.0664H37.0604C39.4017 58.0664 41.3913 56.5363 42.085 54.424C46.89 53.7006 50.5859 49.5445 50.5859 44.541V40.415H55.0487C57.7788 40.415 59.9999 38.194 59.9999 35.4639V25.9766C60 23.2465 57.7789 21.0254 55.0488 21.0254ZM9.41402 36.8994H4.95117C4.15957 36.8994 3.51562 36.2555 3.51562 35.4639V25.9766C3.51562 25.185 4.15957 24.5411 4.95117 24.5411H9.41402V36.8994ZM36.0127 10.3727C34.1323 9.43852 32.1094 8.96484 30 8.96484C27.8907 8.96484 25.8679 9.43852 23.9875 10.3727C22.1109 11.305 19.9356 11.2174 18.1689 10.2264C21.2396 7.26996 25.4109 5.44922 30 5.44922C34.5891 5.44922 38.7605 7.26996 41.8311 10.2264C40.0645 11.2174 37.8892 11.305 36.0127 10.3727ZM37.0605 54.5508H33.5303C32.5529 54.5508 31.7578 53.7557 31.7578 52.7783C31.7578 51.801 32.5529 51.0059 33.5303 51.0059H37.0605C38.0379 51.0059 38.833 51.801 38.833 52.7783C38.833 53.7557 38.0379 54.5508 37.0605 54.5508ZM56.4844 35.4639C56.4844 36.2555 55.8404 36.8994 55.0488 36.8994H50.586V24.5411H55.0488C55.8404 24.5411 56.4844 25.185 56.4844 25.9766V35.4639Z" fill="#F89A22"/>
</svg>
