<svg width="60" height="60" viewBox="0 0 60 60" fill="none" xmlns="http://www.w3.org/2000/svg">
<path d="M51.1816 0H42.9492C41.9784 0 41.1914 0.787031 41.1914 1.75781V7.06055H35.874V1.75781C35.874 0.787031 35.087 0 34.1162 0H25.8838C24.913 0 24.126 0.787031 24.126 1.75781V7.06055H18.8086V1.75781C18.8086 0.787031 18.0216 0 17.0508 0H8.81836C7.84758 0 7.06055 0.787031 7.06055 1.75781V15.8789C7.06055 16.3452 7.24582 16.7923 7.57547 17.1218L10.5908 20.1371V58.2422C10.5908 59.213 11.3779 60 12.3486 60H26.4697H33.5303H47.6514C48.6221 60 49.4092 59.213 49.4092 58.2422V20.1371L52.4245 17.1218C52.7542 16.7923 52.9395 16.3451 52.9395 15.8789V1.75781C52.9395 0.787031 52.1524 0 51.1816 0ZM35.874 10.5762H41.1914V17.6514H35.874V10.5762ZM38.833 21.167V28.2422H34.9866C34.4549 26.7384 33.2617 25.5452 31.7578 25.0134V21.167H38.833ZM31.7725 30V35.3027H28.2275V30C28.2275 29.0227 29.0227 28.2275 30 28.2275C30.9773 28.2275 31.7725 29.0227 31.7725 30ZM27.6416 3.51562H32.3584V17.6514H27.6416V3.51562ZM28.2422 21.167V25.0134C26.7384 25.5451 25.5452 26.7383 25.0134 28.2422H21.167V21.167H28.2422ZM18.8086 10.5762H24.126V17.6514H18.8086V10.5762ZM24.7119 31.7578V35.3027H14.1064V31.7578H24.7119ZM17.6514 38.8184V42.3633H14.1064V38.8184H17.6514ZM17.6514 21.167V28.2422H14.1064V21.167H17.6514ZM10.5762 15.1508V3.51562H15.293V17.6514H13.0767L10.5762 15.1508ZM17.6514 56.4844H14.1064V52.9395H17.6514V56.4844ZM24.7119 56.4844H21.167V52.9395H24.7119V56.4844ZM24.7119 49.4238H14.1064V45.8789H24.7119V49.4238ZM21.167 42.3633V38.8184H26.4697H28.2422V42.3633H26.4697H21.167ZM31.7725 56.4844H28.2275V45.8789H31.7725V56.4844ZM31.7578 42.3633V38.8184H33.5303H38.833V42.3633H33.5303H31.7578ZM38.833 56.4844H35.2881V52.9395H38.833V56.4844ZM45.8936 56.4844H42.3486V52.9395H45.8936V56.4844ZM45.8936 49.4238H35.2881V45.8789H45.8936V49.4238ZM45.8936 42.3633H42.3486V38.8184H45.8936V42.3633ZM45.8936 35.3027H35.2881V31.7578H45.8936V35.3027ZM45.8936 28.2422H42.3486V21.167H45.8936V28.2422ZM49.4238 15.1508L46.9233 17.6514H44.707V3.51562H49.4238V15.1508Z" fill="#F89A22"/>
</svg>
