<svg width="211" height="61" viewBox="0 0 211 61" fill="none" xmlns="http://www.w3.org/2000/svg">
<path d="M79.395 42.7H73.9089H72.2327V17.8425V15.7075C72.2327 15.4025 72.1565 15.1737 71.9279 15.0212C71.7755 14.8687 71.5469 14.7162 71.2421 14.7162H69.0325V17.1562V45.9025H76.6519C77.1853 45.9025 77.5663 45.8263 77.7949 45.5975C78.0234 45.445 78.252 45.2162 78.3282 44.9875C78.4044 44.9112 78.4806 44.6825 78.633 44.3775C78.7092 44.3013 78.7092 44.1488 78.7854 44.0725C79.0902 43.615 79.2426 43.1575 79.395 42.7Z" fill="#F89A22"/>
<path d="M89.0718 14.7925H83.3572V20.2825V39.1162V45.9787H89.0718H89.148C89.3004 45.9787 89.4528 45.9787 89.6813 45.9787C89.7575 45.9787 89.8337 45.9787 89.9099 45.9787C90.0623 45.9787 90.1385 45.9787 90.2909 45.9025C90.3671 45.9025 90.4433 45.9025 90.5195 45.8262C90.5957 45.8262 90.7481 45.75 90.8243 45.75C90.9005 45.75 90.9767 45.75 90.9767 45.6737C91.0529 45.6737 91.2052 45.5975 91.2814 45.5212C91.3576 45.5212 91.3576 45.5212 91.4338 45.445C91.5862 45.3687 91.7386 45.2925 91.8148 45.2162L91.891 45.14C91.9672 45.0637 92.0434 44.9875 92.1196 44.9112C92.1958 44.9112 92.1958 44.835 92.272 44.835C92.3482 44.7587 92.4244 44.6825 92.5006 44.6062C92.5006 44.53 92.5767 44.53 92.5767 44.4537C92.6529 44.3775 92.7291 44.3012 92.7291 44.225L92.8053 44.1487C93.2625 43.4625 93.4911 42.4712 93.4911 41.3275V22.4937V19.215C93.4911 16.2412 92.0434 14.7925 89.0718 14.7925ZM89.6051 42.7C89.529 42.7 89.529 42.7762 89.4528 42.7762C89.3766 42.7762 89.3766 42.8525 89.3004 42.8525C89.2242 42.8525 89.148 42.9287 89.0718 42.9287H88.9956C88.9194 42.9287 88.767 42.9287 88.6908 42.9287H86.5574V17.69H88.6908C88.9194 17.69 89.148 17.7662 89.3766 17.7662C89.6052 17.8425 89.7575 17.995 89.9099 18.1475C90.2147 18.4525 90.3671 18.9862 90.3671 19.7487V21.7312V40.87C90.3671 41.6325 90.2147 42.09 89.9099 42.4712C89.8337 42.5475 89.7575 42.5475 89.7575 42.6237C89.6813 42.6237 89.6051 42.7 89.6051 42.7Z" fill="#F89A22"/>
<path d="M106.292 22.6463C106.673 22.4938 107.13 22.265 107.587 22.0363C108.044 21.8075 108.425 21.655 108.578 21.5788C108.654 21.5025 108.806 21.4263 108.882 21.35C108.959 21.2738 109.111 21.1213 109.187 21.045C109.34 20.8163 109.492 20.435 109.492 19.9013V18.6813C109.492 18.1475 109.416 17.69 109.187 17.1563C108.959 16.6225 108.73 16.2413 108.349 15.86C108.044 15.4788 107.587 15.1738 107.13 14.945C106.673 14.7163 106.139 14.64 105.682 14.64H103.625C103.092 14.64 102.558 14.7163 102.101 14.945C101.644 15.1738 101.263 15.4788 100.882 15.86C100.501 16.2413 100.272 16.6988 100.044 17.1563C99.8153 17.6138 99.7391 18.1475 99.7391 18.6813V21.8838C99.7391 22.4175 99.8153 22.9513 99.9677 23.5613C100.12 24.1713 100.272 24.705 100.425 25.1625C100.425 25.1625 100.425 25.1625 100.425 25.2388C100.501 25.4675 100.577 25.6963 100.653 25.925C100.73 26.0013 100.73 26.1538 100.806 26.23C100.882 26.3825 100.882 26.4588 100.958 26.6113C100.958 26.6875 101.034 26.7638 101.034 26.84L104.844 34.0075C105.149 34.6175 105.454 35.1513 105.606 35.685C105.758 36.2188 105.911 36.6763 105.987 36.9813C106.139 37.4388 106.216 37.82 106.216 38.2013V41.7088C106.216 42.1663 106.063 42.6238 105.758 42.9288C105.454 43.2338 105.073 43.3863 104.539 43.3863C104.082 43.3863 103.701 43.2338 103.32 42.9288C103.015 42.6238 102.787 42.2425 102.787 41.785V36.3713C102.33 36.5238 101.873 36.7525 101.415 36.9813C100.958 37.21 100.577 37.3625 100.425 37.4388C100.196 37.5913 100.044 37.7438 99.8153 37.9725C99.6629 38.2013 99.5105 38.5825 99.5105 39.1163V42.3188C99.5105 43.3863 99.8915 44.3013 100.653 45.0638C101.415 45.8263 102.33 46.2075 103.32 46.2838H105.301C106.368 46.2838 107.282 45.9025 108.12 45.14C108.882 44.3775 109.263 43.4625 109.263 42.3188V38.43C109.263 37.8963 109.187 37.3625 109.035 36.8288C108.882 36.2188 108.73 35.685 108.501 35.2275C108.273 34.6938 108.044 34.0838 107.816 33.55L105.682 29.4325L104.082 26.4588C103.777 25.8488 103.473 25.315 103.32 24.7813C103.168 24.2475 103.015 23.79 102.939 23.485C102.787 23.0275 102.711 22.6463 102.711 22.265V19.0625C102.711 18.605 102.863 18.1475 103.244 17.8425C103.549 17.5375 104.006 17.3088 104.463 17.3088C104.92 17.3088 105.377 17.4613 105.682 17.8425C105.987 18.1475 106.216 18.605 106.216 19.0625V22.6463H106.292Z" fill="#F89A22"/>
<path d="M123.283 23.18C123.588 23.0275 123.969 22.875 124.35 22.7225C124.883 22.4938 125.188 22.3413 125.34 22.265C125.569 22.1125 125.721 21.96 125.95 21.7313C126.102 21.5025 126.255 21.1213 126.255 20.5875V18.605C126.255 17.9188 126.102 17.3088 125.798 16.775C125.645 16.47 125.417 16.165 125.112 15.86C124.35 15.0975 123.436 14.7163 122.369 14.64H120.388C120.083 14.64 119.702 14.7163 119.397 14.7925C118.711 14.945 118.102 15.3263 117.569 15.86C117.188 16.2413 116.959 16.6225 116.73 17.08V17.1563C116.73 17.2325 116.73 17.2325 116.654 17.3088C116.578 17.4613 116.502 17.69 116.502 17.9188C116.502 17.995 116.502 18.0713 116.502 18.1475C116.502 18.3 116.426 18.5288 116.426 18.7575V30.805V42.395C116.426 43.4625 116.807 44.4538 117.569 45.2163C118.331 45.9788 119.245 46.36 120.312 46.36H122.293C123.359 46.2838 124.274 45.9025 125.036 45.14C125.798 44.3775 126.179 43.4625 126.179 42.395V30.9575C126.179 30.8813 126.179 30.7288 126.179 30.6525V30.5763V30.5C126.179 30.4238 126.179 30.3475 126.102 30.2713V30.195C126.102 30.1188 126.026 30.0425 126.026 29.9663V29.89C125.95 29.8138 125.95 29.7375 125.874 29.6613C125.569 29.4325 125.188 29.28 124.731 29.28H120.693L121.759 31.4913C121.912 31.72 121.988 31.9488 122.14 32.025C122.293 32.1775 122.369 32.2538 122.521 32.33C122.674 32.4063 122.75 32.4825 122.902 32.4825H123.055V41.7088C123.055 42.1663 122.902 42.5475 122.521 42.9288C122.216 43.2338 121.759 43.4625 121.302 43.4625C120.845 43.4625 120.388 43.31 120.083 42.9288C119.778 42.6238 119.626 42.1663 119.626 41.7088V30.6525V19.0625C119.626 18.605 119.778 18.2238 120.083 17.8425C120.312 17.6138 120.616 17.4613 120.921 17.385C120.997 17.385 121.15 17.385 121.302 17.385C121.759 17.385 122.14 17.5375 122.521 17.9188C122.902 18.3 123.055 18.6813 123.055 19.1388V23.4088C123.131 23.2563 123.207 23.2563 123.283 23.18Z" fill="#4A4A4A"/>
<path d="M141.798 30.6525L139.665 16.47C139.589 16.0125 139.513 15.6312 139.284 15.3262C139.055 14.945 138.675 14.7925 137.913 14.7925H136.236L133.798 30.6525L131.512 45.9025H135.017L136.998 30.6525L137.608 25.925L137.836 24.4762L140.579 45.9787H144.084L141.798 30.6525Z" fill="#4A4A4A"/>
<path d="M163.667 14.7925H161.686C161.076 14.7925 160.771 14.945 160.543 15.3262C160.39 15.6312 160.314 15.86 160.238 15.9362L156.733 33.855L156.047 30.6525L152.999 15.9362C152.923 15.6312 152.847 15.4787 152.695 15.25C152.542 15.0975 152.39 14.945 152.237 14.945C152.085 14.8687 151.856 14.7925 151.628 14.7925H149.647V45.9025H152.847V30.6525V29.89L154.676 38.0487C154.676 38.2012 154.752 38.43 154.828 38.735C154.904 39.04 155.057 39.2687 155.209 39.5737C155.361 39.8787 155.59 40.1075 155.895 40.26C156.199 40.4887 156.58 40.565 157.038 40.565H158.028L160.238 30.7287L160.314 30.3475L160.39 29.9662V30.7287V45.9787H163.59L163.667 14.7925Z" fill="#4A4A4A"/>
<path d="M179.82 42.7H173.115V31.9488C173.115 31.72 173.191 31.5675 173.343 31.415C173.496 31.2625 173.648 31.1863 173.876 31.1863L175.172 31.2625C175.705 31.2625 176.086 31.1863 176.315 30.9575C176.543 30.805 176.772 30.5763 176.848 30.3475C176.924 30.3475 177.077 30.195 177.229 29.9663C177.458 29.7375 177.61 29.4325 177.762 29.2038C177.915 28.8988 178.067 28.67 178.067 28.4413C178.143 28.2125 178.067 28.1363 177.839 28.1363H173.038V18.6813C173.038 18.4525 173.115 18.3 173.267 18.1475C173.343 18.0713 173.419 18.0713 173.419 18.0713C173.496 17.995 173.648 17.995 173.8 17.995H176.391C176.924 17.995 177.305 17.9188 177.534 17.69C177.762 17.4613 177.991 17.3088 178.067 17.08C178.143 17.08 178.22 16.9275 178.448 16.6988C178.677 16.47 178.829 16.165 178.982 15.9363C179.134 15.7075 179.286 15.4025 179.286 15.1738C179.363 14.945 179.286 14.8688 179.058 14.8688H170.752C170.524 14.8688 170.295 14.945 170.067 15.0975C169.838 15.25 169.762 15.4788 169.762 15.7838V28.67V45.9788H176.924C177.458 45.9788 177.839 45.9025 178.067 45.6738C178.296 45.5213 178.524 45.2925 178.601 45.0638C178.677 45.0638 178.753 44.9113 178.982 44.6825C179.21 44.4538 179.363 44.1488 179.515 43.92C179.667 43.615 179.82 43.3863 179.82 43.1575C180.124 42.8525 180.048 42.7 179.82 42.7Z" fill="#4A4A4A"/>
<path d="M194.297 30.5762C194.449 30.4237 194.602 30.1187 194.754 29.7375C194.906 29.3562 194.983 28.8987 194.983 28.2887V19.4437V18.605C194.983 18.0712 194.906 17.5375 194.678 17.08C194.449 16.6225 194.221 16.165 193.84 15.86C193.459 15.4787 193.078 15.25 192.621 15.0212C192.163 14.7925 191.63 14.7162 191.097 14.7162H185.306V45.8262H188.506V40.565V32.4825H190.182C190.64 32.4825 191.021 32.635 191.401 32.8637C191.706 33.1687 191.935 33.7025 191.935 34.465V38.735V45.8262H195.135V37.0575V33.9312C195.135 33.3212 195.059 32.8637 194.906 32.4825C194.754 32.1012 194.602 31.7962 194.449 31.5675C194.297 31.2625 194.068 31.11 193.84 30.9575C193.916 30.9575 194.145 30.805 194.297 30.5762ZM191.249 29.2037C190.944 29.4325 190.487 29.585 190.03 29.585H188.354V20.8925V17.995H190.03C190.487 17.995 190.868 18.0712 191.249 18.3C191.554 18.5287 191.782 18.91 191.782 19.52V27.6787C191.782 28.4412 191.554 28.8987 191.249 29.2037Z" fill="#4A4A4A"/>
<path d="M208.622 22.0363C209.079 21.8075 209.46 21.655 209.612 21.5788C209.841 21.4263 209.993 21.2738 210.222 21.045C210.374 20.8163 210.526 20.435 210.526 19.9013V18.6813C210.526 18.1475 210.45 17.69 210.222 17.1563C210.069 16.8513 209.917 16.5463 209.764 16.3175C209.764 16.3175 209.764 16.3175 209.688 16.2413C209.612 16.0888 209.46 15.9363 209.383 15.86C209.079 15.4788 208.622 15.1738 208.164 14.945C207.707 14.7163 207.174 14.64 206.717 14.64H204.736C204.202 14.64 203.669 14.7163 203.212 14.945C202.755 15.1738 202.297 15.4788 201.993 15.86C201.612 16.2413 201.383 16.6988 201.154 17.1563C201.078 17.2325 201.078 17.385 201.002 17.4613V17.5375C201.002 17.6138 200.926 17.69 200.926 17.8425V17.9188C200.926 17.995 200.926 18.1475 200.85 18.2238C200.85 18.3763 200.85 18.5288 200.85 18.6813V21.8838C200.85 22.4175 200.926 22.9513 201.078 23.5613C201.231 24.1713 201.383 24.705 201.535 25.1625C201.688 25.6963 201.916 26.3063 202.221 26.84L206.031 34.0075C206.336 34.6175 206.64 35.1513 206.793 35.685C206.945 36.2188 207.098 36.6763 207.174 36.9813C207.326 37.4388 207.402 37.82 207.402 38.2013V41.7088C207.402 42.1663 207.25 42.6238 206.945 42.9288C206.64 43.2338 206.259 43.3863 205.726 43.3863C205.269 43.3863 204.888 43.2338 204.507 42.9288C204.202 42.6238 203.974 42.2425 203.974 41.785V36.3713C203.516 36.5238 203.059 36.7525 202.602 36.9813C202.145 37.21 201.764 37.3625 201.612 37.4388C201.383 37.5913 201.231 37.7438 201.002 37.9725C200.85 38.2013 200.697 38.5825 200.697 39.1163V42.3188C200.697 43.3863 201.078 44.3013 201.84 45.0638C202.602 45.8263 203.44 46.2075 204.507 46.2838H206.488C207.555 46.2838 208.469 45.9025 209.307 45.14C210.069 44.3775 210.45 43.4625 210.45 42.3188V38.43C210.45 37.8963 210.374 37.3625 210.222 36.8288C210.069 36.2188 209.917 35.685 209.688 35.2275C209.46 34.6938 209.231 34.0838 209.003 33.55L205.269 26.4588C204.964 25.8488 204.659 25.315 204.507 24.7813C204.355 24.2475 204.202 23.79 204.126 23.485C203.974 23.0275 203.897 22.6463 203.897 22.265V19.0625C203.897 18.605 204.05 18.1475 204.431 17.8425C204.736 17.5375 205.193 17.3088 205.65 17.3088C206.107 17.3088 206.564 17.4613 206.869 17.8425C207.174 18.1475 207.402 18.605 207.402 19.0625V22.6463C207.707 22.4938 208.164 22.265 208.622 22.0363Z" fill="#4A4A4A"/>
<path d="M52.803 45.75L26.3634 61L0 45.75V15.25L26.3634 0L52.803 15.25V45.75Z" fill="white"/>
<path d="M49.9076 16.9275V44.0725L26.3634 57.645L2.89539 44.0725V16.9275L26.3634 3.27875L49.9076 16.9275Z" fill="#F89A22"/>
<path d="M24.3824 13.9537L25.6015 13.42L26.3634 10.9037L27.2016 13.42V13.4962L28.4207 14.03L29.2588 12.81H30.5542L28.5731 15.555L26.3634 14.5637L24.23 15.6312L22.1727 12.7337H23.5442L24.3824 13.9537Z" fill="white"/>
<path d="M27.9635 22.7988L29.4112 26.4588L30.6303 24.5525L35.6591 21.7313L43.2024 20.435L47.0121 18.7575L44.4977 23.3325L36.4211 25.315L42.5929 25.01L40.7642 27.9075L32.6113 30.0425H37.564L35.7353 32.635L31.6208 33.6263L30.6303 32.7113L29.8683 33.4738L31.6208 39.8788L30.4779 42.6238L28.6492 38.0488L29.2588 45.5975L26.4396 52.46H26.3634L23.5442 45.5975L24.1537 37.9725L22.325 42.6238L21.1821 39.8788L22.9346 33.3975L22.1726 32.635L21.1821 33.55L17.0676 32.5588L15.2389 30.0425H20.1916V29.9663L12.0387 27.8313L10.1339 25.01L16.3818 25.2388L8.3052 23.3325L5.79077 18.6813L9.60051 20.435L17.1438 21.7313L22.1726 24.5525L23.3918 26.3825L23.9251 23.2563L22.8584 23.4088L23.5442 22.1125L21.6393 22.4175L23.0108 20.9688L21.7155 21.045L20.8011 21.4263L21.5631 20.5113L26.3634 18.9863L30.935 21.7313V22.7988H27.9635Z" fill="white"/>
</svg>
